<svg class="main-svg" xmlns="http://www.w3.org/2000/svg" xmlns:xlink="http://www.w3.org/1999/xlink" width="800" height="600" style="" viewBox="0 0 800 600"><rect x="0" y="0" width="800" height="600" style="fill: rgb(255, 255, 255); fill-opacity: 1;"/><defs id="defs-9058d9"><g class="clips"><clipPath id="clip9058d9xyplot" class="plotclip"><rect width="700" height="463"/></clipPath><clipPath class="axesclip" id="clip9058d9x"><rect x="60" y="0" width="700" height="600"/></clipPath><clipPath class="axesclip" id="clip9058d9y"><rect x="0" y="50" width="800" height="463"/></clipPath><clipPath class="axesclip" id="clip9058d9xy"><rect x="60" y="50" width="700" height="463"/></clipPath></g><g class="gradients"/></defs><g class="bglayer"/><g class="layer-below"><g class="imagelayer"/><g class="shapelayer"/></g><g class="cartesianlayer"><g class="subplot xy"><g class="layer-subplot"><g class="shapelayer"/><g class="imagelayer"/></g><g class="gridlayer"><g class="x"><path class="xgrid crisp" d="M0,50v463" transform="translate(147.7,0)" style="stroke: rgb(238, 238, 238); stroke-opacity: 1; stroke-width: 1px;"/><path class="xgrid crisp" d="M0,50v463" transform="translate(235.4,0)" style="stroke: rgb(238, 238, 238); stroke-opacity: 1; stroke-width: 1px;"/><path class="xgrid crisp" d="M0,50v463" transform="translate(323.1,0)" style="stroke: rgb(238, 238, 238); stroke-opacity: 1; stroke-width: 1px;"/><path class="xgrid crisp" d="M0,50v463" transform="translate(410.8,0)" style="stroke: rgb(238, 238, 238); stroke-opacity: 1; stroke-width: 1px;"/><path class="xgrid crisp" d="M0,50v463" transform="translate(498.49,0)" style="stroke: rgb(238, 238, 238); stroke-opacity: 1; stroke-width: 1px;"/><path class="xgrid crisp" d="M0,50v463" transform="translate(586.19,0)" style="stroke: rgb(238, 238, 238); stroke-opacity: 1; stroke-width: 1px;"/><path class="xgrid crisp" d="M0,50v463" transform="translate(673.89,0)" style="stroke: rgb(238, 238, 238); stroke-opacity: 1; stroke-width: 1px;"/></g><g class="y"><path class="ygrid crisp" d="M60,0h700" transform="translate(0,416.08)" style="stroke: rgb(238, 238, 238); stroke-opacity: 1; stroke-width: 1px;"/><path class="ygrid crisp" d="M60,0h700" transform="translate(0,341.24)" style="stroke: rgb(238, 238, 238); stroke-opacity: 1; stroke-width: 1px;"/><path class="ygrid crisp" d="M60,0h700" transform="translate(0,266.39)" style="stroke: rgb(238, 238, 238); stroke-opacity: 1; stroke-width: 1px;"/><path class="ygrid crisp" d="M60,0h700" transform="translate(0,191.55)" style="stroke: rgb(238, 238, 238); stroke-opacity: 1; stroke-width: 1px;"/><path class="ygrid crisp" d="M60,0h700" transform="translate(0,116.71)" style="stroke: rgb(238, 238, 238); stroke-opacity: 1; stroke-width: 1px;"/></g></g><g class="zerolinelayer"><path class="xzl zl crisp" d="M0,50v463" transform="translate(60,0)" style="stroke: rgb(68, 68, 68); stroke-opacity: 1; stroke-width: 1px;"/><path class="yzl zl crisp" d="M60,0h700" transform="translate(0,490.92)" style="stroke: rgb(68, 68, 68); stroke-opacity: 1; stroke-width: 1px;"/></g><path class="xlines-below"/><path class="ylines-below"/><g class="overlines-below"/><g class="xaxislayer-below"/><g class="yaxislayer-below"/><g class="overaxes-below"/><g class="plot" transform="translate(60, 50)" clip-path="url(#clip9058d9xyplot)"><g class="scatterlayer mlayer"><g class="trace scatter traceef7a82" style="stroke-miterlimit: 2; opacity: 1;"><g class="fills"/><g class="errorbars"/><g class="lines"><path class="js-line" d="M0,111.26L1.75,149.38L3.51,86.96L5.26,158.49L7.02,183L8.77,125.93L10.52,93.63L12.28,59.67L14.03,174.6L15.79,55.16L17.54,96.63L19.29,67.73L21.05,87.61L22.8,23.15L24.56,211.1L26.31,163.91L28.06,145.97L29.82,143.47L31.57,92.2L33.33,104.43L35.08,150.63L36.83,131.22L38.59,145.76L40.34,129.72L42.1,209.8L43.85,102.28L45.6,129.52L47.36,299.77L49.11,239.18L50.87,207.68L52.62,192.58L54.37,203.48L56.13,180.59L57.88,180.41L59.64,182.75L61.39,215.98L63.14,185.12L64.9,200.36L66.65,179.47L68.41,173.9L70.16,215.98L71.91,85.38L73.67,185.37L75.42,294.72L77.18,266.31L78.93,277.63L80.68,221.62L82.44,253.44L84.19,265.21L85.94,297.81L87.7,240.23L89.45,186.29L91.21,300.09L92.96,218.11L94.71,234.62L96.47,333.74L98.22,232.82L99.98,246.62L101.73,285.26L103.48,244.73L105.24,263.11L106.99,207.1L108.75,257.86L110.5,248.33L112.25,299.87L114.01,276.26L115.76,264.99L117.52,358.14L119.27,338.87L121.02,360.97L122.78,293.97L124.53,324.29L126.29,295.07L129.79,344.4L131.55,342.51L133.3,335.32L135.06,273.2L136.81,305.28L138.56,298.45L140.32,359.64L142.07,369.46L143.83,305.48L145.58,421.41L147.33,355.12L149.09,360.34L150.84,271.28L152.6,371.69L154.35,270.8L156.1,335.21L157.86,263.29L159.61,250.7L161.37,328.3L163.12,338.9L164.87,362.15L166.63,311.92L168.38,352.75L170.14,417.07L173.64,281.19L175.4,323.15L177.15,329.85L178.91,369.46L182.41,311.63L184.17,309.51L187.68,224.54L189.43,282.78L191.18,337.89L192.94,269.69L194.69,134.39L196.45,346.14L198.2,237.09L199.95,362.85L201.71,387.8L203.46,374.68L206.97,345.59L208.72,316.87L210.48,415.11L212.23,315.72L213.99,367.49L215.74,313.48L217.49,366.81L219.25,277.45L221,291.37L222.76,382.5L224.51,378.12L226.26,328.62L228.02,250.26L229.77,370.54L231.53,327.73L233.28,340.64L235.03,353.81L236.79,280.03L238.54,369.58L240.3,273.06L242.05,295.73L243.8,416.01L245.56,314.92L247.31,311.84L249.06,341.16L250.82,349.31L252.57,260.66L254.33,336.17L256.08,330.84L257.83,375.07L259.59,366.61L261.34,337.45L263.1,302.21L264.85,353.43L266.6,341.2L268.36,432.9L270.11,347.21L271.87,336.47L273.62,315.91L275.37,343.46L277.13,268.63L278.88,317.55L280.64,361.64L282.39,366.55L284.14,379.1L285.9,362.42L287.65,348.12L289.41,321.78L292.91,370.8L294.67,367.21L296.42,316.73L298.18,387.9L299.93,303.02L301.68,341.96L303.44,311.28L305.19,361.89L306.95,390.01L308.7,310.91L310.45,408.69L312.21,365.84L313.96,369.45L315.72,250.98L317.47,200.91L319.22,407.42L320.98,400.74L322.73,297.19L324.49,345.21L326.24,351.15L327.99,368.26L329.75,196.48L331.5,345.95L333.26,372.65L335.01,340.48L336.76,415.47L338.52,300.85L340.27,341.65L342.03,435.35L343.78,313.2L345.53,290.62L347.29,329.75L349.04,366.06L350.8,375.67L352.55,308.77L354.3,390.3L356.06,356.47L357.81,384.74L359.57,332.57L361.32,329.69L363.07,391.5L364.83,354.7L366.58,333.19L368.34,321.15L370.09,317.14L371.84,360.95L373.6,257.09L375.35,369.3L377.11,415.13L378.86,393.76L380.61,357.6L382.37,410.43L384.12,287.45L385.88,383.63L389.38,312.25L391.14,382.85L392.89,389.57L394.65,366.02L398.15,317.49L399.91,335.42L401.66,300.06L403.42,321.29L405.17,335.9L406.92,381.94L408.68,341.35L410.43,328.78L412.19,411.24L413.94,369.49L415.69,386.18L417.45,271.79L419.2,378.61L420.95,387.1L422.71,367.63L424.46,372.63L426.22,312.05L427.97,387.58L429.72,329.4L431.48,369.99L433.23,357.87L434.99,396.85L436.74,300.98L438.49,350.89L440.25,219.26L442,378.26L443.76,338.62L445.51,325.34L447.26,337.69L449.02,299.52L450.77,370.02L452.53,390.48L454.28,358.69L456.03,348.97L457.79,334.97L459.54,399.13L461.3,316.55L463.05,376.98L464.8,364.01L466.56,298.12L468.31,353.9L470.07,330.2L471.82,340.02L473.57,356.73L475.33,400.74L477.08,347.76L478.84,398.22L480.59,358.31L482.34,381.3L484.1,268.5L485.85,389.1L487.61,355.45L489.36,412.94L491.11,380.64L492.87,350.78L494.62,349.12L496.38,373.37L498.13,297.57L499.88,404.63L501.64,364.73L503.39,358.49L505.15,369.51L506.9,339.59L508.65,249.86L510.41,368.78L512.16,376.37L513.92,439.85L515.67,362.21L517.42,381.84L519.18,259.71L520.93,376.04L522.69,295.31L524.44,372.19L526.19,339.48L527.95,353.96L529.7,341.39L531.46,384.14L533.21,354.99L534.96,401.35L536.72,368.9L538.47,388.12L540.23,350.65L541.98,396.4L543.73,356.9L545.49,380.86L547.24,285.03L549,269.55L550.75,353.95L552.5,320.16L554.26,402.31L556.01,353.82L557.77,405.19L559.52,337.22L561.27,372.03L563.03,435.66L564.78,374.38L566.54,373.82L568.29,328.86L570.04,340.36L571.8,325.4L573.55,383.12L575.31,389.04L577.06,299.62L578.81,380.7L580.57,380.93L582.32,327.32L584.07,371.39L585.83,308.56L587.58,439.21L589.34,361.27L591.09,305.92L592.84,401.32L594.6,354.33L596.35,350.72L599.86,394.15L601.61,331.01L603.37,368.54L605.12,384.35L606.88,377.02L608.63,313.81L610.38,266.37L612.14,432.63L615.65,373.82L617.4,364.64L619.15,382.54L620.91,279.19L622.66,386.63L624.42,364.53L626.17,342.71L627.92,363.52L629.68,408.67L631.43,270.77L634.94,339.07L636.69,429.64L638.45,319.48L640.2,358.38L641.96,288.34L643.71,350.57L645.46,366.61L647.22,396.68L648.97,348.35L650.73,328.78L652.48,342.69L654.23,343.69L655.99,352.78L657.74,388.03L659.5,408.42L661.25,379.54" style="vector-effect: non-scaling-stroke; fill: none; stroke: rgb(244, 162, 97); stroke-opacity: 1; stroke-width: 1.5px; opacity: 1;"/></g><g class="points"/><g class="text"/></g><g class="trace scatter traceba61e6" style="stroke-miterlimit: 2; opacity: 1;"><g class="fills"/><g class="errorbars"/><g class="lines"/><g class="points"><path class="point" transform="translate(661.25,379.54)" d="M3,0A3,3 0 1,1 0,-3A3,3 0 0,1 3,0Z" style="opacity: 1; stroke-width: 0px; fill: rgb(244, 162, 97); fill-opacity: 1;"/></g><g class="text"/></g></g></g><g class="overplot"/><path class="xlines-above crisp" d="M0,0" style="fill: none;"/><path class="ylines-above crisp" d="M0,0" style="fill: none;"/><g class="overlines-above"/><g class="xaxislayer-above"><g class="xtick"><text text-anchor="middle" x="0" y="536" transform="translate(60,0)" style="font-family: 'Open Sans', verdana, arial, sans-serif; font-size: 12px; fill: rgb(68, 68, 68); fill-opacity: 1; white-space: pre;">0</text></g><g class="xtick"><text text-anchor="middle" x="0" y="536" transform="translate(147.7,0)" style="font-family: 'Open Sans', verdana, arial, sans-serif; font-size: 12px; fill: rgb(68, 68, 68); fill-opacity: 1; white-space: pre;">50</text></g><g class="xtick"><text text-anchor="middle" x="0" y="536" transform="translate(235.4,0)" style="font-family: 'Open Sans', verdana, arial, sans-serif; font-size: 12px; fill: rgb(68, 68, 68); fill-opacity: 1; white-space: pre;">100</text></g><g class="xtick"><text text-anchor="middle" x="0" y="536" transform="translate(323.1,0)" style="font-family: 'Open Sans', verdana, arial, sans-serif; font-size: 12px; fill: rgb(68, 68, 68); fill-opacity: 1; white-space: pre;">150</text></g><g class="xtick"><text text-anchor="middle" x="0" y="536" transform="translate(410.8,0)" style="font-family: 'Open Sans', verdana, arial, sans-serif; font-size: 12px; fill: rgb(68, 68, 68); fill-opacity: 1; white-space: pre;">200</text></g><g class="xtick"><text text-anchor="middle" x="0" y="536" transform="translate(498.49,0)" style="font-family: 'Open Sans', verdana, arial, sans-serif; font-size: 12px; fill: rgb(68, 68, 68); fill-opacity: 1; white-space: pre;">250</text></g><g class="xtick"><text text-anchor="middle" x="0" y="536" transform="translate(586.19,0)" style="font-family: 'Open Sans', verdana, arial, sans-serif; font-size: 12px; fill: rgb(68, 68, 68); fill-opacity: 1; white-space: pre;">300</text></g><g class="xtick"><text text-anchor="middle" x="0" y="536" transform="translate(673.89,0)" style="font-family: 'Open Sans', verdana, arial, sans-serif; font-size: 12px; fill: rgb(68, 68, 68); fill-opacity: 1; white-space: pre;">350</text></g></g><g class="yaxislayer-above"><g class="ytick"><text text-anchor="end" x="49" y="4.199999999999999" transform="translate(0,490.92)" style="font-family: 'Open Sans', verdana, arial, sans-serif; font-size: 12px; fill: rgb(68, 68, 68); fill-opacity: 1; white-space: pre;">0.4</text></g><g class="ytick"><text text-anchor="end" x="49" y="4.199999999999999" transform="translate(0,416.08)" style="font-family: 'Open Sans', verdana, arial, sans-serif; font-size: 12px; fill: rgb(68, 68, 68); fill-opacity: 1; white-space: pre;">0.55</text></g><g class="ytick"><text text-anchor="end" x="49" y="4.199999999999999" transform="translate(0,341.24)" style="font-family: 'Open Sans', verdana, arial, sans-serif; font-size: 12px; fill: rgb(68, 68, 68); fill-opacity: 1; white-space: pre;">0.6</text></g><g class="ytick"><text text-anchor="end" x="49" y="4.199999999999999" transform="translate(0,266.39)" style="font-family: 'Open Sans', verdana, arial, sans-serif; font-size: 12px; fill: rgb(68, 68, 68); fill-opacity: 1; white-space: pre;">0.75</text></g><g class="ytick"><text text-anchor="end" x="49" y="4.199999999999999" transform="translate(0,191.55)" style="font-family: 'Open Sans', verdana, arial, sans-serif; font-size: 12px; fill: rgb(68, 68, 68); fill-opacity: 1; white-space: pre;">0.9</text></g><g class="ytick"><text text-anchor="end" x="49" y="4.199999999999999" transform="translate(0,116.71)" style="font-family: 'Open Sans', verdana, arial, sans-serif; font-size: 12px; fill: rgb(68, 68, 68); fill-opacity: 1; white-space: pre;">1.05</text></g></g><g class="overaxes-above"/></g></g><g class="polarlayer"/><g class="ternarylayer"/><g class="geolayer"/><g class="pielayer"/><g class="glimages"/><defs id="topdefs-9058d9"><g class="clips"/><clipPath id="legend9058d9"><rect width="165" height="29" x="0" y="0"/></clipPath></defs><g class="layer-above"><g class="imagelayer"/><g class="shapelayer"/></g><g class="infolayer"><g class="legend" pointer-events="all" transform="translate(130, 559.3000000000001)"><rect class="bg" shape-rendering="crispEdges" style="stroke: rgb(68, 68, 68); stroke-opacity: 1; fill: rgb(255, 255, 255); fill-opacity: 1; stroke-width: 0px;" width="165" height="29" x="0" y="0"/><g class="scrollbox" transform="translate(0, 0)" clip-path="url(#legend9058d9)"><g class="groups"><g class="traces" transform="translate(0, 14.5)" style="opacity: 1;"><g class="layers" style="opacity: 1;"><g class="legendfill"/><g class="legendlines"><path class="js-line" d="M5,0h30" style="fill: none; stroke: rgb(244, 162, 97); stroke-opacity: 1; stroke-width: 1.5px;"/></g><g class="legendsymbols"><g class="legendpoints"/></g></g><text class="legendtext user-select-none" text-anchor="start" x="40" y="4.680000000000001" style="font-family: 'Open Sans', verdana, arial, sans-serif; font-size: 12px; fill: rgb(68, 68, 68); fill-opacity: 1; white-space: pre;">Loss</text><rect class="legendtoggle" pointer-events="all" x="0" y="-9.5" width="165" height="19" style="cursor: pointer; fill: rgb(0, 0, 0); fill-opacity: 0;"/></g></g></g><rect class="scrollbar" rx="20" ry="3" width="0" height="0" style="fill: rgb(128, 139, 164); fill-opacity: 1;" x="0" y="0"/></g><g class="g-gtitle"><text class="gtitle" x="400" y="25" text-anchor="middle" style="font-family: 'Open Sans', verdana, arial, sans-serif; font-size: 17px; fill: rgb(68, 68, 68); opacity: 1; font-weight: normal; white-space: pre;">Validation loss at each mini-batch</text></g><g class="g-xtitle"/><g class="g-ytitle"/></g></svg>