<svg class="main-svg" xmlns="http://www.w3.org/2000/svg" xmlns:xlink="http://www.w3.org/1999/xlink" width="800" height="600" style="" viewBox="0 0 800 600"><rect x="0" y="0" width="800" height="600" style="fill: rgb(255, 255, 255); fill-opacity: 1;"/><defs id="defs-e75996"><g class="clips"><clipPath id="clipe75996xyplot" class="plotclip"><rect width="700" height="463"/></clipPath><clipPath class="axesclip" id="clipe75996x"><rect x="60" y="0" width="700" height="600"/></clipPath><clipPath class="axesclip" id="clipe75996y"><rect x="0" y="50" width="800" height="463"/></clipPath><clipPath class="axesclip" id="clipe75996xy"><rect x="60" y="50" width="700" height="463"/></clipPath></g><g class="gradients"/></defs><g class="bglayer"/><g class="layer-below"><g class="imagelayer"/><g class="shapelayer"/></g><g class="cartesianlayer"><g class="subplot xy"><g class="layer-subplot"><g class="shapelayer"/><g class="imagelayer"/></g><g class="gridlayer"><g class="x"><path class="xgrid crisp" d="M0,50v463" transform="translate(192.57,0)" style="stroke: rgb(238, 238, 238); stroke-opacity: 1; stroke-width: 1px;"/><path class="xgrid crisp" d="M0,50v463" transform="translate(325.14,0)" style="stroke: rgb(238, 238, 238); stroke-opacity: 1; stroke-width: 1px;"/><path class="xgrid crisp" d="M0,50v463" transform="translate(457.7,0)" style="stroke: rgb(238, 238, 238); stroke-opacity: 1; stroke-width: 1px;"/><path class="xgrid crisp" d="M0,50v463" transform="translate(590.27,0)" style="stroke: rgb(238, 238, 238); stroke-opacity: 1; stroke-width: 1px;"/><path class="xgrid crisp" d="M0,50v463" transform="translate(722.84,0)" style="stroke: rgb(238, 238, 238); stroke-opacity: 1; stroke-width: 1px;"/></g><g class="y"><path class="ygrid crisp" d="M60,0h700" transform="translate(0,435.51)" style="stroke: rgb(238, 238, 238); stroke-opacity: 1; stroke-width: 1px;"/><path class="ygrid crisp" d="M60,0h700" transform="translate(0,381.14)" style="stroke: rgb(238, 238, 238); stroke-opacity: 1; stroke-width: 1px;"/><path class="ygrid crisp" d="M60,0h700" transform="translate(0,326.76)" style="stroke: rgb(238, 238, 238); stroke-opacity: 1; stroke-width: 1px;"/><path class="ygrid crisp" d="M60,0h700" transform="translate(0,272.39)" style="stroke: rgb(238, 238, 238); stroke-opacity: 1; stroke-width: 1px;"/><path class="ygrid crisp" d="M60,0h700" transform="translate(0,218.02)" style="stroke: rgb(238, 238, 238); stroke-opacity: 1; stroke-width: 1px;"/><path class="ygrid crisp" d="M60,0h700" transform="translate(0,163.65)" style="stroke: rgb(238, 238, 238); stroke-opacity: 1; stroke-width: 1px;"/><path class="ygrid crisp" d="M60,0h700" transform="translate(0,109.27000000000001)" style="stroke: rgb(238, 238, 238); stroke-opacity: 1; stroke-width: 1px;"/><path class="ygrid crisp" d="M60,0h700" transform="translate(0,54.9)" style="stroke: rgb(238, 238, 238); stroke-opacity: 1; stroke-width: 1px;"/></g></g><g class="zerolinelayer"><path class="xzl zl crisp" d="M0,50v463" transform="translate(60,0)" style="stroke: rgb(68, 68, 68); stroke-opacity: 1; stroke-width: 1px;"/><path class="yzl zl crisp" d="M60,0h700" transform="translate(0,489.88)" style="stroke: rgb(68, 68, 68); stroke-opacity: 1; stroke-width: 1px;"/></g><path class="xlines-below"/><path class="ylines-below"/><g class="overlines-below"/><g class="xaxislayer-below"/><g class="yaxislayer-below"/><g class="overaxes-below"/><g class="plot" transform="translate(60, 50)" clip-path="url(#clipe75996xyplot)"><g class="scatterlayer mlayer"><g class="trace scatter tracee6040c" style="stroke-miterlimit: 2; opacity: 1;"><g class="fills"/><g class="errorbars"/><g class="lines"><path class="js-line" d="M0,109.65L0.13,23.15L0.27,286.31L0.4,247.42L0.53,303.68L0.8,337.19L1.06,286.9L1.19,296.33L1.33,300.61L1.46,307.44L1.59,300.99L1.72,349.19L1.99,247.35L2.52,312.62L2.65,333.58L3.31,293.05L3.45,335.46L3.71,319.99L3.84,336.25L3.98,346.2L4.51,302.13L4.77,333.1L4.91,336.94L5.04,309.3L5.44,344.83L5.57,325.31L5.7,333.64L5.83,334.88L5.97,315.42L6.63,352.31L6.76,319.18L7.03,366.8L7.29,311.82L7.56,332.66L7.69,328.43L7.95,336.05L8.22,296.03L8.35,328.5L8.48,332.9L9.01,316.15L9.54,370.44L9.68,356.54L9.94,311.94L10.47,336.25L10.61,358.29L11.14,310.7L11.4,335.45L11.53,338.98L11.67,313.67L12.06,347.05L12.2,332.39L12.33,342.88L12.46,301.81L12.86,347.98L12.99,333.81L13.12,350.37L13.52,305.98L13.79,351.79L13.92,335.69L14.05,338L14.32,325.12L14.45,353.65L14.58,334.91L14.72,322.5L14.85,364.68L15.25,295.02L15.51,347.59L15.64,337.91L15.91,352.28L16.04,305.47L16.17,307.29L16.31,337.97L16.7,337.12L16.97,350.56L17.1,364.21L17.37,366.4L17.5,328.09L17.9,332.17L18.03,338.37L18.16,350.97L18.29,323.23L18.69,333.16L18.82,341.06L19.22,364.12L19.35,355.56L19.49,329.02L19.89,323.09L20.02,353.03L20.42,352.89L20.55,338.27L20.68,341.66L20.81,332.29L20.95,326.46L21.08,329.28L21.21,363.04L22.01,331.33L22.14,377.58L22.4,328.8L22.93,349.01L23.07,332.43L23.33,374.23L23.86,349.87L23.99,349.28L24.26,347.09L24.66,365.49L24.79,361.98L24.92,344.37L25.45,338.12L25.59,366.1L25.72,357.69L25.85,316.01L26.65,365.32L26.78,341.21L26.91,328.74L27.04,372.8L27.31,360.91L27.44,360.37L27.57,363.46L27.71,335.05L27.84,366.77L28.5,351.75L28.63,351.06L28.9,338.08L29.03,379.42L29.16,338.19L29.3,359.86L29.56,332.17L29.96,357.93L30.09,361.82L30.23,372.99L30.49,344.47L30.76,372.94L30.89,362.79L31.02,376.83L31.29,352.06L31.42,366.93L31.55,329.01L32.35,372.99L32.48,364.28L32.74,351.13L32.88,365.45L33.01,364.1L33.27,351.39L33.54,367.66L33.67,373.98L33.8,384.05L34.07,376.64L34.2,349.61L34.6,386.55L34.87,382.27L35,356.31L35.93,393.09L36.06,369.55L36.19,371.03L36.32,365.43L36.46,359.42L36.59,347.61L36.72,367.87L36.85,362.95L36.99,383.4L37.25,348.16L37.65,386.03L37.78,367.34L37.91,370.6L38.05,389.9L38.58,379.3L38.71,364.47L39.24,382.37L39.51,352.31L39.64,353.96L40.43,381.12L40.57,358.6L40.96,374.49L41.23,366.21L41.36,358.53L41.76,368.89L41.89,343.89L42.02,372.85L42.29,343.22L42.42,378.12L42.69,347.59L42.82,370.52L43.35,337.11L43.48,360.64L43.61,373.76L43.88,362.02L44.01,375.66L44.15,373.17L44.28,383.83L44.41,347.38L44.94,381.54L45.07,382.6L45.6,361.95L45.74,371.5L45.87,379.31L46.13,392.92L46.27,370.13L46.4,387.35L46.53,387.83L46.66,394.47L47.06,377.83L47.33,390.71L47.46,379.44L47.72,371.4L47.86,382.94L47.99,403.62L48.12,352.59L48.52,380.7L48.65,374.25L48.79,401.61L49.18,344.21L49.45,391.42L49.58,381.53L49.85,375.99L49.98,395.79L50.38,388.74L50.51,397.92L50.64,376.08L51.17,396.67L51.3,394.18L51.44,403.8L51.57,397.2L51.7,359.37L52.1,400.04L52.63,396.44L52.76,388.27L52.89,369.46L53.29,401.47L53.42,373.88L53.56,401.28L53.69,371.14L54.35,389.74L54.49,381.39L54.75,378.64L54.88,399.82L55.15,391.95L55.28,382.24L55.55,409.85L55.68,373.78L55.81,371.18L55.94,392.51L56.08,372.14L56.34,400.8L56.74,382.24L56.87,378.33L57.14,373.69L57.4,392.87L57.53,388.66L57.67,369.5L57.8,402.38L58.33,386.32L58.46,376.12L59.52,401.72L59.66,398.66L59.92,386.27L60.05,368.13L60.72,402.92L60.85,390.5L60.98,368.51L61.11,364.8L61.25,390.9L61.38,414.66L61.78,382.34L62.04,400.1L62.17,399.35L62.31,382.56L62.57,412.55L62.84,402.44L62.97,402.19L63.24,411.96L63.77,373.02L63.9,399.27L64.16,403.16L64.3,392.52L64.43,407.31L64.69,381.59L65.09,394.49L65.22,408.46L65.49,405.08L65.89,418.48L66.02,397.02L66.15,393.9L66.28,412.58L66.42,398.52L66.95,403.71L67.08,408.69L67.87,384.14L68.01,420.99L68.41,348.27L68.8,390.93L68.94,391.53L69.07,404.33L69.33,387.4L69.73,400.75L69.86,392.52L70,399.52L70.13,376.87L70.66,397.24L70.79,396.58L71.06,398.97L71.19,408.41L71.72,417.71L72.12,378.44L72.25,405.05L72.78,359.76L72.91,411.32L73.05,385.73L73.18,417.14L73.97,383.82L74.11,400.92L74.24,396.38L74.37,412.48L74.5,413.87L74.77,416.25L74.9,385.98L75.3,403.03L75.43,411.59L76.23,384.01L76.36,405.55L76.62,395.95L76.76,418.16L77.02,406.82L77.15,402.2L77.55,398.83L77.95,419.9L78.08,412.89L78.35,416.59L79.01,392.23L79.14,411.09L79.28,421.31L79.54,396.19L79.67,417.59L79.81,397.02L80.73,426.3L80.87,407.06L81.13,420.28L81.26,405.97L81.66,420L81.79,413.47L82.19,397.58L82.59,403.03L82.72,403.38L83.39,398.83L83.52,421.17L83.65,417.87L83.78,393.84L84.31,423.29L84.45,398.96L84.58,407.22L84.84,385.63L85.11,391.13L85.24,416.75L85.64,413.64L85.77,426.02L85.9,384.11L86.04,424.39L86.7,410.84L86.83,393.54L87.36,420.06L87.49,405.95L87.63,393.87L87.76,413.05L88.42,411.49L88.56,411.84L88.95,402.94L89.09,386.07L89.88,419L90.01,414.8L90.15,409.61L90.41,399.72L90.54,413.47L90.81,404.21L90.94,419.69L91.34,421.74L91.74,370.35L91.87,388.72L92.27,418.84L92.67,398.13L92.8,407.4L93.46,405.33L93.59,421.32L93.73,412.17L93.86,417.7L94.26,412.07L94.39,403.45L94.65,424.46L94.79,394.09L95.05,402.11L95.18,398.38L95.32,398.8L95.45,403.33L95.58,419.72L95.85,392.39L96.11,411.89L96.24,382.35L97.04,423.26L97.17,413.5L97.31,402.14L97.7,419.76L97.84,425.21L98.63,402.35L98.76,418.4L98.9,431.65L99.03,405.38L99.29,417.41L99.43,409.26L99.56,416.16L99.96,401.82L100.22,414.02L100.35,414.55L100.49,406.31L100.75,422.71L100.88,411.69L101.02,420.79L101.28,422.15L101.41,420.8L101.55,399.89L101.68,422.02L102.21,417.52L102.34,386.01L102.74,428.81L103.14,410.75L103.27,420.5L103.93,387.98L104.07,415.45L104.2,417.07L104.33,404.01L104.46,423.39L104.99,414.98L105.13,407.91L105.52,420.26L105.66,418.01L105.79,408.94L106.05,415.1L106.45,400.4L106.58,405.22L106.72,409.76L106.98,390.79L107.25,423L107.38,413.94L107.51,399.29L108.04,427.64L108.44,426.57L108.57,408.93L108.97,427.92L109.24,415.75L109.37,408.1L109.9,402.06L110.3,421.47L110.43,412.79L111.09,429.06L111.22,410.17L111.62,422.58L112.02,420.67L112.15,404.08L112.55,400.51L113.35,429.24L113.48,418.45L113.61,403.07L114.14,425.33L114.27,426.2L114.8,404.9L115.07,414.83L115.2,420.67L115.33,430.82L115.6,412.14L115.73,399.28L116.39,422.78L116.53,418.31L116.66,429.89L117.06,407.34L117.19,416.98L117.32,431.69L117.46,408.54L117.99,424.28L118.12,429.61L118.91,407.89L119.05,422.48L119.44,413L119.58,426.83L119.71,421.15L119.84,420.5L120.24,429.28L120.37,401.72L120.77,393.74L121.03,425.48L121.17,395.45L121.3,423.04L121.96,416.25L122.1,422.01L122.23,423.65L122.36,391.34L122.49,428.14L122.76,391.17L123.16,408.89L123.29,401.97L123.69,400.35L124.08,431.08L124.22,421.85L124.61,419.77L124.88,431.67L125.01,410.97L125.14,424.79L125.67,406.38L125.81,416.17L126.2,424.05L126.34,402.42L126.87,430.75L127.13,425.9L127.27,413.09L127.66,429.98L127.93,420.13L128.06,405.44L128.19,429.52L128.59,401.31L128.86,420.33L128.99,419.82L129.25,412.46L129.52,426.77L129.65,425.08L129.78,415.3L130.58,432.59L130.71,415.38L130.84,435.1L130.98,401.35L131.51,426.06L131.64,415.78L132.3,427.07L132.44,418.69L132.57,424.47L132.83,417.44L133.23,418.71L133.36,427.95L133.89,418.07L134.16,424.04L134.29,430.33L134.42,429.4L134.56,431.2L134.69,417.26L134.82,407.14L135.22,423.45L135.35,430.51L135.48,424.76L135.62,377.51L135.88,431.88L136.41,402.45L136.55,408.9L137.34,432.65L137.47,425.49L137.61,420.92L138,420.33L138.27,437.46L138.67,429.6L138.8,426.99L139.06,410.66L139.33,428.11L139.59,422.15L139.73,415.06L140.26,412.67L140.65,433.31L140.79,413.02L141.05,410.88L141.19,424.18L141.32,423.58L141.45,401.47L141.72,431.55L142.11,419.15L142.25,412.95L142.51,406.69L142.78,430.42L142.91,426.4L143.04,409.42L143.31,415.63L143.44,428.27L143.57,427.58L143.7,411.83L144.23,430.26L144.37,400.92L144.63,429.18L145.16,423.39L145.29,423.03L145.69,426.82L145.82,410.35L145.96,426.28L146.09,431.56L146.49,422.2L146.62,426.97L146.75,420.63L146.89,417.55L147.02,432.42L147.68,410.76L147.81,434.63L148.48,410.07L148.61,417.25L148.74,416.5L148.87,416.09L149.01,428.77L149.4,416.03L149.67,432.43L149.8,430.7L150.6,407.47L150.73,425.62L151,410.95L151.13,429.36L151.53,418.98L151.66,418.5L151.92,415.43L152.06,432.96L152.32,418.49L152.45,397.93L152.59,430.16L153.25,425.68L153.38,416.88L153.65,403.39L153.78,410.33L153.91,422.07L154.04,410.84L154.31,429.27L154.57,421.45L154.71,430.33L154.84,430.22L154.97,426.38L155.24,409.5L155.37,425.27L155.5,430.85L155.77,433.22L155.9,419.41L156.17,425.59L156.3,434.1L156.96,406.36L157.09,434.21L157.76,414.35L157.89,433.56L158.55,417.08L158.68,429.41L158.82,419.69L159.21,432.89L159.61,422.52L159.74,418.48L160.01,409.88L160.14,421.91L160.41,410.79L160.54,432.09L161.07,407.02L161.2,411.55L161.34,428.33L161.6,430.24L162.26,409.16L162.4,432.63L162.66,393.76L163.06,414.85L163.19,429.82L163.32,428.03L163.46,406.06L163.72,416.39L163.85,403.77L164.12,410.59L164.25,408.02L164.78,425.68L165.05,419.26L165.18,413.85L165.45,425.62L165.58,419.66L165.71,413.79L165.84,404.33L166.11,420.91L166.37,419.05L166.51,424.52L166.9,400.94L167.17,407.85L167.3,411.62L167.57,407.45L167.7,431.7L168.1,433.1L168.63,413.22L168.76,432.7L169.02,403.45L169.16,436.56L169.55,426.17L169.69,431.29L170.08,432.41L170.22,415.66L170.35,437.46L170.75,427.1L170.88,430.67L171.01,433.95L171.28,417.94L171.41,422.03L171.54,430.29L171.68,431.09L171.81,425.65L171.94,424.75L172.07,433.01L172.21,424.29L172.74,425.97L172.87,433.35L173,433.84L173.13,425.63L173.27,425.52L173.4,426.9L173.53,420.95L174.06,429.79L174.19,430.59L174.33,431.84L174.46,418.51L174.99,437.53L175.26,429.7L175.39,424.8L175.52,421.95L175.65,437.44L175.79,427.37L176.45,429.38L176.58,434.19L176.98,425.72L177.11,434.68L177.24,436.68L177.51,430.3L177.64,434.28L177.77,428.49L178.04,434.2L178.44,422.2L178.57,428.46L178.7,429.27L178.83,428.05L178.97,420.86L179.23,437.07L179.76,436.04L179.89,429.14L180.43,436.79L180.56,428.72L180.69,428.49L180.82,434.36L180.96,420.64L181.35,433.11L181.49,423.81L182.02,433.24L182.28,428.92L182.41,418.14L182.81,436.03L183.08,431.17L183.21,424.17L183.34,437.05L184,433.28L184.14,436.78L184.8,423.91L184.93,424.58L185.07,427.79L185.6,435.54L185.73,424.38L186.52,434.8L186.66,427.94L187.05,425.47L187.45,434.4L187.58,430.33L187.85,434.93L188.11,434.68L188.25,425.38L189.04,437.53L189.17,427.55L189.44,421.32L189.71,433.66L189.84,433.3L190.5,423.73L190.63,423.98L190.77,424.83L191.43,436.83L191.56,436L191.69,432L191.83,427.76L192.09,434.3L192.36,432.57L192.49,430.92L192.89,437.27L193.28,433.23L193.42,427.19L194.08,436.99L194.21,427.88L194.34,437.12L195.01,435.89L195.14,432.31L195.54,430.99L195.94,437.05L196.07,421.46L196.2,436.3L196.73,419.91L196.86,435.9L197,428.18L197.13,424.27L197.26,436.2L197.39,435.53L197.53,435.59L197.66,436.02L197.79,434.5L197.92,413.27L198.06,433.86L198.59,432.79L198.72,419.24L198.98,437.39L199.52,433.89L199.65,433.2L199.78,437.93L199.91,431.81L200.18,435.61L200.31,429.35L200.71,436.26L201.11,436.08L201.24,427.71L201.64,437.13L201.77,426L202.03,435.69L202.17,435.56L202.3,435.69L202.43,433.08L202.56,434.41L202.7,430.5L202.83,424.11L203.36,436.96L203.49,420.96L203.62,435.42L203.76,436.26L203.89,428.93L204.15,436.76L204.42,433.18L204.55,436.21L204.69,427.91L205.08,437.61L205.35,429.31L205.48,432.89L205.88,426.86L206.01,436.39L206.14,435.05L206.28,434.29L206.41,436.2L206.54,435.23L206.67,428.25L207.07,436.94L207.47,434.69L207.6,431.83L207.73,425.54L208.26,434.87L208.4,428.51L208.53,432.77L208.93,434.8L209.06,421.89L209.19,428.15L209.33,435.39L209.59,432.7L209.86,434.95L209.99,425.59L210.78,436.75L210.92,435.52L211.05,432.94L211.31,419.42L211.45,437.12L211.84,428.49L211.98,436.3L212.51,424.52L212.77,428.27L212.9,434.15L213.04,434.83L213.17,431.55L213.7,434.71L213.83,415.62L213.97,432.45L214.23,422.44L214.36,435.54L214.63,433.89L214.76,436.77L215.03,435.09L215.16,436.6L215.56,431.79L215.69,436.24L215.82,435.46L216.35,423.99L216.48,428.57L216.62,435.25L216.75,424.94L216.88,435.77L217.28,435.48L217.41,434.93L218.07,436.48L218.21,429.86L218.34,435.98L219,429.2L219.14,434.37L219.27,436.09L219.67,436.13L219.93,427.72L220.06,436.17L220.46,437.34L220.99,427.99L221.12,430.03L221.52,427.96L221.79,436.56L221.92,430.39L222.18,426.74L222.58,436.33L222.71,435.52L222.85,426.09L223.51,436.09L223.64,422.59L223.78,437.34L224.44,428.64L224.57,434.75L224.97,436.41L225.23,426.27L225.37,435.72L225.5,437.19L225.9,435.81L226.03,433.19L226.16,423.76L226.56,436.8L226.69,434.37L226.82,435.98L227.09,432.54L227.22,433.14L227.35,421.08L227.75,436.33L228.15,427.15L228.28,433.29L228.41,425.65L228.81,436.69L228.95,433.7L229.08,434.43L229.21,428.58L229.74,436.19L229.87,428.85L230.01,436.33L230.54,437.59L230.8,430.07L230.93,435.49L231.6,437.02L231.73,424.71L231.86,436.11L232.26,436.18L232.39,428.58L232.52,435.93L232.66,435.93L233.05,432.04L233.45,432.97L233.59,436.39L234.12,426.9L234.25,430.4L234.38,437.02L234.51,422.3L235.04,436.21L235.18,433.93L235.31,426.52L235.57,436.43L235.97,430.95L236.1,430.09L236.24,434.73L236.63,427.38L236.77,433.04L236.9,406.04L237.56,436.98L237.69,424.68L237.83,425.3L238.22,422.84L238.89,437.49L239.02,435.72L239.15,425.67L239.55,437.19L239.68,436.87L239.82,436.06L240.08,435.03L240.35,436.97L240.48,432.04L240.74,436.86L241.01,430.68L241.27,435.55L241.41,430.24L241.54,436.76L241.94,429.66L242.07,436.12L242.2,431.62L242.33,437.44L243,436L243.13,431.55L243.53,424.08L243.79,435.87L243.93,434.74L244.06,423.74L244.32,437.93L244.85,436.93L244.99,435.49L245.12,434.28L245.25,424.67L246.18,438.22L246.31,434.18L246.44,428.62L246.71,435.89L247.11,431.7L247.24,434.88L247.37,437.01L247.5,422.43L248.04,436.03L248.57,435.92L248.7,432.84L248.96,435.04L249.1,421.96L249.36,436.55L249.89,433.05L250.02,433.82L250.16,427.73L250.69,428.11L250.82,435.33L250.95,437.14L251.08,432.18L251.35,434.54L251.48,430.84L251.61,425.21L251.75,437.45L252.14,427.62L252.28,433.07L252.54,437.34L252.67,425.75L252.94,435.24L253.07,437.89L253.21,431L253.87,431.08L254,438.13L254.13,430.97L254.8,433.11L254.93,435.67L255.19,431.55L255.33,437.55L255.72,427.62L255.99,431.81L256.12,437.17L256.25,436.29L256.39,428.53L256.52,436.82L257.18,433.31L257.31,436.48L257.85,437.11L258.11,426.93L258.24,435.54L258.77,429.6L258.91,432.02L259.04,434.08L259.3,436.58L259.44,433.55L259.57,430.25L259.7,426.74L259.83,433.71L260.1,430.94L260.23,436.06L260.5,436.35L260.63,435.31L260.76,436.92L260.89,433.56L261.03,430.44L261.16,429.68L261.29,435.06L261.56,436.44L261.69,420.14L261.82,435.95L262.35,437.89L262.62,425.88L262.75,436.85L262.88,436.61L263.02,433.92L263.15,426.25L263.28,435.2L263.68,427.54L263.81,434.62L263.94,433.31L264.08,437.53L264.34,434.86L264.47,421.32L265,437.66L265.27,435.29L265.4,427.56L265.8,437.33L266.2,436.43L266.33,432.48L266.46,431.06L266.59,436.32L266.73,435.88L266.86,435.77L266.99,436.85L267.12,432.18L267.26,430.66L267.92,437.92L268.19,437.32L268.32,433.9L268.58,437.5L268.85,437.46L268.98,430.26L269.11,429.85L269.25,433.69L269.38,427.24L269.78,436.54L270.04,429.61L270.17,430.4L270.44,437.57L270.7,429.98L270.97,437.38L271.1,436.26L271.23,437.14L271.37,437.06L271.5,404.55L272.03,435.37L272.3,429.11L272.43,435.95L273.09,436.58L273.22,425.23L273.36,436.77L273.49,437.41L273.62,432.73L273.89,437.66L274.15,428.28L274.42,435.07L274.55,429.29L275.08,437.72L275.21,429.29L275.34,428.45L275.61,436.9L276.14,436.76L276.27,428.21L276.93,436.66L277.07,434.37L277.2,435.14L277.73,427.14L277.86,433.25L278,436.59L278.26,436.93L278.66,429.6L278.79,436.88L278.92,437.63L279.06,421.44L279.45,437.45L279.98,435.85L280.12,433.6L280.25,435.46L280.38,421.95L280.91,436.33L281.18,428.23L281.31,434.72L281.71,437.85L281.84,433.22L282.11,437.21L282.24,435.41L282.5,433.9L282.64,437.56L282.9,437.79L283.03,437.2L283.17,425.17L283.3,437.24L283.96,437.08L284.09,436.8L284.36,428.18L284.49,437.37L284.62,430.18L284.76,437.53L285.02,438.02L285.15,427.82L285.42,435.8L285.55,436.6L285.68,437.16L285.82,436.59L285.95,433.14L286.21,436.27L286.48,427.14L286.61,435.74L286.74,433.32L287.28,437.22L287.41,436.93L287.54,428.59L288.07,435.81L288.2,436.16L288.47,427.72L288.87,434.17L289,434.37L289.13,433.38L289.26,436.89L289.66,433.8L289.79,436.88L290.06,431.76L290.46,435.64L290.59,436.55L291.12,424.61L291.25,436.83L291.38,436.95L291.65,426.01L292.18,429.28L292.31,431.83L292.58,419.24L292.84,437.35L292.98,436.5L293.11,426.89L293.24,437.41L293.9,435.35L294.04,436.58L294.43,436.65L294.57,433.86L294.7,430.06L295.1,436.94L295.49,436.4L295.63,435.63L295.89,436.81L296.02,425.34L296.69,438.07L296.95,436.2L297.09,434.9L297.62,436.78L297.75,429.05L297.88,436.15L298.01,429.55L298.15,436.8L298.68,433.27L298.81,430.7L298.94,431.95L299.07,425.74L299.47,437.74L299.87,433.19L300,428.49L300.4,436.68L300.66,434.79L300.8,430.16L300.93,437.56L301.46,426.91L301.59,436.95L301.73,437.83L301.86,426.71L302.52,430.17L302.65,436.05L302.79,438.07L303.32,435.29L303.45,435.96L303.58,435.22L303.98,436.82L304.11,429.84L304.77,426.68L304.91,437.51L305.04,436.44L305.17,437.61L305.3,431.24L306.23,437.55L306.37,437.58L307.03,426.01L307.16,429.4L307.29,436L307.56,436.68L307.82,425.91L308.09,433.69L308.22,431.39L308.35,428.54L308.62,438.11L308.75,436.48L309.02,436.05L309.15,437.19L309.41,438.06L309.81,430.19L309.94,437.4L310.34,428.85L310.61,435L310.74,437.27L310.87,437.99L311.14,435.29L311.27,435.88L311.54,436.21L311.67,429.11L311.8,423.2L312.6,437.61L312.73,428.02L312.86,429.1L312.99,437.07L313.39,434.73L313.52,437.32L313.66,428.81L313.92,423.39L314.05,437.49L314.45,436.93L314.58,434.6L314.72,436.32L314.85,427.65L315.51,437.82L315.64,425.85L316.57,437.46L316.71,432.56L316.97,430.19L317.1,436.57L317.24,427.77L317.9,437.51L318.16,435.81L318.3,435.41L318.69,436.89L318.96,425.52L319.09,436.7L319.36,437.4L319.62,430.16L319.75,437.49L320.42,425.29L320.55,437.38L320.68,436.82L320.81,430.96L320.95,437.87L321.61,436.18L321.74,433.56L321.88,426.92L322.41,436.48L322.54,434.2L323.07,431.7L323.47,437.21L323.6,436.13L323.73,437.64L323.86,432.49L324,430.59L324.26,437.23L324.66,435.32L324.79,435.05L325.32,437.44L325.45,423.04L325.59,435.73L325.85,437.75L325.99,435.88L326.12,428.83L326.78,438.1L326.91,435.96L327.05,422.87L327.44,437.29L327.84,435.03L327.97,434.95L328.11,433.01L328.24,438.17L328.5,436.68L328.64,437.51L329.3,425.95L329.43,431.95L329.56,436.61L329.7,430.06L329.96,437.69L330.23,436.69L330.36,435.32L330.49,434.61L330.63,434.74L330.76,429.08L330.89,429.73L331.02,435.47L331.29,437.34L331.42,429.21L332.22,438.27L332.35,433.11L332.48,434.86L332.61,430.86L332.75,432.52L332.88,427.76L333.01,437.42L333.67,437.22L333.81,434.95L334.47,437.06L334.6,425.59L334.73,432.41L335,437.51L335.53,435.75L335.66,434.83L336.06,436.91L336.33,428.56L336.46,436.43L336.99,437.55L337.12,433.3L337.25,436.64L337.65,427.71L337.92,431.78L338.05,436.01L338.18,424.72L338.71,435.91L338.84,433.22L339.11,426.37L339.24,437.65L339.64,435.23L339.77,435.61L340.04,438.01L340.17,437.48L340.3,432.44L340.44,426.33L340.83,437.53L340.97,437.18L341.1,432.79L341.63,435.85L341.76,437.11L342.42,428.42L342.56,437.13L342.69,437.64L342.82,434.37L343.09,437.18L343.35,427.46L343.48,437.28L343.62,437.09L343.75,434.45L344.01,433.55L344.28,437.92L344.68,436.85L344.81,429.52L344.94,428.38L345.07,435.71L345.21,435.41L345.34,437.76L345.87,432.68L346,436.41L346.14,425.44L346.27,437.59L346.8,419.53L346.93,432.3L347.06,434.03L347.33,437.19L347.46,428.95L347.73,436.8L347.86,437.02L347.99,437.54L348.12,436.41L348.26,431.4L348.39,436.25L348.79,424.19L348.92,426.1L349.32,437.27L349.58,437.05L349.71,423.63L350.11,437.63L350.38,437.61L350.51,427.48L351.04,437.58L351.31,437.11L351.44,437.04L351.97,433.4L352.1,437.29L352.37,435.38L352.5,430.59L353.16,436.88L353.29,436.82L353.43,435.47L353.69,431.38L353.96,437.26L354.09,436.01L354.22,429.91L354.62,437.71L355.02,435.88L355.15,430.41L355.42,437.91L355.95,435.88L356.08,435.84L356.61,437.79L356.74,430.58L356.87,436.49L357.01,436.8L357.14,434.38L357.4,436.63L357.54,431.25L357.93,436.89L358.2,428.69L358.33,430.33L358.6,428.16L358.86,437.1L359.13,433.77L359.26,436.95L359.66,430.67L359.92,436.46L360.06,436.03L360.45,437.59L360.72,437.07L360.85,430.18L360.98,427.56L361.25,436.66L361.38,436.22L361.91,436.25L362.18,429.31L362.31,437.45L362.71,431.82L363.1,435.31L363.24,436.94L363.37,435.86L363.5,424.64L364.16,436.61L364.3,433.74L364.43,434.86L364.56,437.69L364.83,429.06L364.96,433.33L365.09,424.9L365.62,437.97L365.89,435.18L366.02,432.02L366.15,429.11L366.29,436.88L366.55,436.73L366.68,434.43L366.82,436.47L367.08,430.7L367.48,435.16L367.61,437.01L367.88,437.68L368.01,427.5L368.41,432.01L368.54,436.25L368.94,437.44L369.2,425.2L369.33,428.37L369.47,437.22L369.6,438.13L369.73,434.96L369.87,429.09L370.53,437.26L370.66,432.61L370.79,437.06L370.93,437.29L371.19,437.03L371.32,434.94L371.46,437.81L371.59,431.82L371.85,435.4L371.99,430.47L372.12,429.58L372.25,436.23L372.78,436.97L373.05,425.16L373.18,430.06L373.31,437.24L373.44,436.97L373.58,432.69L373.97,438.24L374.11,431.91L374.9,437.4L375.04,435.22L375.57,433.61L375.7,438.03L375.83,436.89L375.96,436.16L376.23,437.18L376.49,435.32L376.63,437.29L377.02,436.09L377.29,436.46L377.42,431.65L377.95,436.55L378.22,435.97L378.35,436.78L378.75,437.56L379.01,420.64L379.14,435.74L379.41,429.16L379.68,437.9L379.81,434.49L379.94,437.87L380.34,429.18L380.87,430.35L381,433.92L381.13,437.38L381.4,428.63L381.53,436.11L381.66,430.02L381.8,427.29L381.93,436.5L382.06,437.3L382.33,437.98L382.59,432.67L382.72,437.94L382.86,436.39L382.99,427.45L383.39,437.78L383.65,432.51L383.78,435.34L383.92,437.47L384.05,428.06L384.32,436.85L384.45,423.28L384.58,436.78L385.24,432.35L385.38,434.55L386.04,437.9L386.17,434.21L386.3,432.02L386.44,436.21L386.7,435.52L386.83,437.38L387.36,429.85L387.5,435.98L387.63,437.25L387.76,436.34L387.89,428.31L388.69,437.33L388.82,433.56L389.22,428.56L389.62,436.69L389.75,436.99L390.28,433.85L390.41,427.87L390.68,438.01L391.08,434.62L391.21,428.21L391.87,438.06L392,427.96L392.27,437.96L392.67,435.67L392.8,433.08L393.06,436.6L393.33,430.97L393.46,435.98L393.99,437.72L394.13,435.31L394.26,434.7L394.39,429.35L394.52,436.15L394.66,427.39L395.19,433.46L395.32,436.19L395.98,437.89L396.11,436.97L396.25,437.25L396.38,437.61L396.51,437.28L396.64,434.86L396.91,434.77L397.04,436.76L397.17,429.6L397.31,428.74L397.44,436.73L397.57,437.56L397.7,435.99L397.84,430.58L398.23,437.75L398.5,427.61L398.63,435.62L398.77,427.3L399.16,426.47L399.56,437.02L399.69,430.44L399.83,424.94L399.96,437.04L400.22,435.84L400.36,435.4L400.49,437.19L400.75,431.25L400.89,431.09L401.28,428.69L401.68,437.22L401.81,437.32L401.95,437.73L402.08,433.64L402.34,437.86L402.87,436.1L403.01,432.33L403.14,437.18L403.27,426L403.67,432.76L403.8,430.73L404.2,428.65L404.86,438.37L405,436.18L405.13,434.21L405.53,432.25L405.66,438.1L405.92,436.19L406.06,437.16L406.19,437.27L406.32,429L407.12,437.34L407.25,436.62L407.51,438.33L407.65,430.67L407.91,437.5L408.58,437.46L408.71,432.42L409.5,437.8L409.64,436.77L409.77,434.03L409.9,435.62L410.17,434.49L410.3,428.06L410.7,427.14L411.09,438.06L411.23,436.78L411.36,437.45L411.62,428.45L412.15,432.9L412.29,431.99L412.55,437.63L412.68,428.97L412.82,434.62L412.95,425.83L413.08,437.4L413.48,424.25L413.61,436.31L413.75,421.29L414.14,437.04L414.54,436.62L414.67,433.54L414.94,429.92L415.07,437.87L415.47,435.31L415.6,435.94L416,436.69L416.13,425.82L416.26,433.5L416.4,437.63L416.53,438.28L416.66,437.74L416.79,431.94L417.06,422.02L417.19,436.13L417.46,424.73L417.59,436.47L417.85,432.7L417.99,437.52L418.39,430.86L418.78,434.79L418.92,437.68L419.18,437.91L419.31,436.8L419.45,430.67L419.84,437.48L419.98,427.32L420.24,426.87L420.64,437.13L420.77,427.45L420.9,437.37L421.57,435.11L421.7,435.82L421.96,437.09L422.49,436.85L422.63,432.6L423.16,432.42L423.42,437.39L423.56,434.82L423.69,437.18L423.95,431.13L424.09,437.03L424.22,429.35L424.75,428.89L425.01,437.33L425.15,437.04L425.28,437.65L425.68,436.47L425.81,436.8L425.94,429.95L426.34,437.9L426.6,436.84L426.74,431.76L426.87,438.19L427.4,429.69L427.53,433.9L427.66,437.05L427.8,428.22L428.06,437.3L428.46,429.19L428.59,434.51L428.73,437.42L428.86,427.39L429.12,435.31L429.26,422.89L429.39,437.87L430.05,435.54L430.18,437.15L430.71,438.05L431.11,430.27L431.24,436.3L431.51,435.59L431.64,435.75L431.77,428.26L432.04,427.68L432.17,436.96L432.57,432.94L432.7,432.76L433.37,437.83L433.5,429.89L433.63,437.56L434.16,435.34L434.29,430.25L434.82,436.83L434.96,433.89L435.09,429.14L435.35,428.86L435.49,437.35L436.02,435.59L436.15,434.95L436.28,437.01L436.41,427.12L436.81,437.64L437.08,435.1L437.21,423.95L437.61,437.15L438.01,436.81L438.14,434.29L438.54,437.69L438.93,435.88L439.07,436.91L439.46,430.44L439.6,429.16L440.13,437.07L440.39,436.4L440.52,436.66L441.05,437.58L441.32,430.87L441.45,436.29L441.58,436.21L441.72,436.98L441.85,437.27L441.98,428.14L442.65,431.18L442.78,432.62L442.91,437.95L443.31,436.15L443.44,427.97L443.71,435.48L444.1,425.32L444.24,431.62L444.37,435.58L444.77,426.04L445.03,437.02L445.16,429.69L445.3,430.73L445.56,430.47L445.83,438L446.09,433.69L446.22,437.34L446.36,430.16L446.89,436.19L447.02,436.11L447.15,436.27L447.28,430.3L447.55,437.65L448.08,437.29L448.21,437.03L448.74,425.63L448.88,437.77L449.14,431.2L449.67,434.83L449.8,436.24L450.07,436.33L450.47,420.53L450.6,429.99L450.73,438.05L451,436.31L451.13,427.14L451.26,427.51L451.39,433.09L451.53,433.51L451.66,437.33L452.46,430.29L452.59,436.84L452.72,436.28L452.85,437.84L452.99,437.45L453.12,433.1L453.38,438.08L453.52,429.86L453.65,424.86L453.91,438.26L454.44,435.92L454.58,433.82L454.84,432.94L455.11,437.15L455.37,436.9L455.5,435.6L455.64,436.98L455.77,427.86L456.17,437.66L456.7,437.64L456.83,437.9L456.96,429.64L457.49,436.42L457.63,436.25L457.89,437.21L458.02,433.5L458.29,436.97L458.42,427.06L458.55,426.8L458.69,437.5L458.82,432.88L459.48,436.08L459.61,437.56L460.01,425.83L460.14,437.51L460.41,437.56L460.54,420.12L460.67,428.46L460.81,435.46L460.94,435.33L461.07,437.27L461.2,437.9L461.34,429.75L461.47,428.94L461.6,436.63L461.73,437.37L462,435.95L462.13,432.82L462.27,436.19L462.53,428.41L462.93,435.91L463.06,431.16L463.59,437.83L463.99,437.35L464.12,436.34L464.39,426.69L464.52,437.74L464.78,434.06L464.92,436.35L465.45,438.06L465.58,435.47L466.37,437.73L466.51,429.4L466.77,427.9L467.17,436.92L467.3,425.55L467.57,437.85L468.23,436.93L468.36,431.55L468.5,436.67L468.76,419.74L469.16,434.57L469.29,437.13L469.56,426.37L469.95,433.15L470.09,432.74L470.22,437.61L470.88,437.16L471.01,426.78L471.15,436.75L471.68,430.42L471.81,428.34L472.34,437.64L472.61,436.78L472.74,428.84L473.4,437.78L473.67,436.26L473.8,436.78L473.93,438.24L474.2,433.98L474.33,436.57L474.46,432.94L474.59,433.33L474.73,431.95L474.86,434.83L474.99,437.1L475.26,431.72L475.39,429.09L475.65,436.54L476.05,435.52L476.18,429.87L476.58,437.84L476.72,429.05L476.85,418.73L477.11,437.46L477.64,430.21L477.78,436.33L478.44,429.47L478.57,432.88L478.7,437.45L478.84,431.01L479.37,436.37L479.5,436.93L479.63,423.21L479.76,437.23L480.29,428.89L480.43,435.27L480.82,433.63L480.96,436.44L481.09,428.94L481.36,428.55L481.49,436.3L481.89,434.62L482.02,432.78L482.42,425.43L482.55,438.14L482.81,437.21L482.95,436.8L483.21,432.53L483.34,436.65L483.48,437.77L484.54,430.87L484.67,437.01L484.8,420.62L485.2,437.66L485.33,436.8L485.46,435.9L485.6,436.25L485.73,435.28L485.86,437.67L486.26,430.05L486.39,419.35L486.79,437.51L487.32,435.9L487.45,433.47L487.59,431.2L487.85,437.17L487.98,437.13L488.38,437.45L488.78,429.4L488.91,435.26L489.18,433.73L489.71,437.42L489.84,437.45L489.97,437.59L490.1,435.44L490.37,437.67L490.5,430.63L490.77,434.28L490.9,437.27L491.43,438.02L491.83,432.93L491.96,437L492.09,428.79L492.62,436.04L492.76,436.79L493.02,436.91L493.15,434.65L493.29,436.13L493.42,433.24L493.55,429.82L494.35,438.61L494.48,434.8L494.88,436.98L495.01,436.84L495.14,435.79L495.54,437.1L495.67,436.18L495.8,429.97L496.07,425.75L496.34,437.58L496.6,436.28L496.73,430.02L496.87,428.95L497,434.42L497.13,426.95L497.53,437.84L497.66,436.44L497.79,435.43L497.93,429.19L498.32,437.74L498.46,436.78L498.59,437.23L499.52,423.36L499.65,434.45L499.91,437.47L500.31,429.59L500.44,430.95L500.58,438.36L501.77,429.78L501.9,437.63L502.3,432.48L502.57,436.97L502.7,436.41L502.96,436.22L503.1,432.69L503.36,437.74L503.63,431.28L503.76,437.57L503.89,428.27L504.02,437.38L504.69,433.96L504.82,437L505.35,421.18L505.48,437.07L505.75,434.06L506.15,436.94L506.28,427.71L506.94,437.32L507.21,435.34L507.34,435.87L507.47,437.82L507.87,435.33L508,437.26L508.13,435.97L508.66,426.94L508.8,436.35L508.93,434.77L509.06,422.81L509.33,437.36L509.59,435.84L509.72,434.81L509.86,434.73L509.99,431.96L510.25,437.36L510.79,435.71L510.92,427.56L511.18,436.65L511.71,436.5L511.85,435.55L511.98,437.44L512.11,433.5L512.64,437.33L512.77,436.7L512.91,437.7L513.04,433.97L513.44,436.84L513.57,434.08L513.83,437.4L514.1,430.47L514.23,431.54L514.36,434.43L514.5,437.12L514.76,434.2L515.03,434.95L515.16,432.43L515.29,438.05L515.69,424.44L515.96,436.91L516.09,437.11L516.22,424.88L516.75,437.05L516.88,437.25L517.02,424.91L517.68,429.08L517.81,434.79L517.94,437.21L518.21,429.92L518.34,436.38L518.47,431.09L518.61,437.24L519.14,427.62L519.27,435.75L519.4,436.78L519.53,435.95L519.8,437.96L519.93,428.33L520.06,437.72L520.73,437.5L520.86,428.45L520.99,437.34L521.52,434.26L521.66,420.45L521.79,437.14L522.45,429.8L522.58,436.89L522.72,437.3L522.85,433.02L523.51,430.78L523.64,437.89L523.78,434.96L523.91,434.19L524.17,435.84L524.31,437.36L525.1,429.71L525.24,436.17L525.9,437.33L526.03,428.3L526.16,437.43L526.43,436.17L526.69,437.36L526.83,427.37L527.36,436.91L527.49,436.05L527.62,427.58L528.42,437.6L528.55,435.86L528.95,437.61L529.08,426.82L529.61,437.57L529.87,433.5L530.01,431.83L530.14,429.44L530.54,435.32L530.67,436.23L530.94,437.04L531.33,429.27L531.47,436.79L532.13,430.14L532.26,434.32L532.53,430.92L532.79,435.94L532.92,435.82L533.32,437.97L533.59,433.57L533.72,437.95L534.51,430.68L534.65,436.12L535.44,438.05L535.58,436.36L535.71,428.15L535.97,437.47L536.37,430.71L536.5,434.55L536.64,433.1L536.77,433.2L536.9,438.48L537.17,420.33L537.43,437.03L537.56,437.09L537.7,436.86L537.83,428.84L538.62,436.38L538.76,435.02L539.02,436.85L539.15,431.04L539.29,438.29L539.42,437.57L539.55,428.18L540.35,438.46L540.48,426.52L541.01,437.63L541.28,431.87L541.41,435.52L541.94,434.68L542.07,437.88L542.2,427.09L543,438.09L543.13,431.04L543.66,429.65L543.79,438.05L543.93,423.12L544.32,437L544.72,436.05L544.86,434.63L545.25,437.52L545.65,436.67L545.78,429.91L545.92,435.56L546.05,428.6L546.58,434.91L546.71,436.84L547.11,425.4L547.24,428.13L547.37,436.35L547.51,422.86L547.9,437.18L548.04,429.57L548.17,433.96L548.3,430.72L548.43,437.84L548.7,436.4L548.83,436.46L549.23,426.2L549.36,434.44L549.5,436.78L550.16,427.43L550.29,434.58L550.42,435.87L550.69,437.78L550.95,435.28L551.09,428.44L551.75,438.1L551.88,436.06L552.01,424.98L552.28,437.22L552.81,437.03L552.94,430.71L553.21,437.22L553.6,430.06L553.74,430.45L553.87,437.67L554.27,429.05L554.53,437.58L554.67,434.87L554.8,427.11L555.06,437.04L555.33,436.59L555.46,437.65L555.73,434.84L555.86,437.28L555.99,434.26L556.26,438.01L556.65,436.28L556.79,436.25L557.32,437.01L557.45,428.06L557.58,435.91L557.71,436.81L557.85,424.43L558.38,437.77L558.64,430.73L558.77,437.52L559.17,425.16L559.44,435.29L559.57,438L559.97,435.17L560.37,437.24L560.5,436.6L561.03,426.39L561.29,433.74L561.43,435.31L561.56,438.43L561.69,435.86L561.82,426.49L562.22,437.54L562.49,436.66L562.62,429.85L562.75,426.63L562.88,436.41L563.15,429.21L563.28,433.15L563.94,437.76L564.08,422.76L564.74,437.42L564.87,437.09L565.01,436.32L565.27,437.53L565.4,437.29L565.54,432.71L565.8,438.03L566.07,430.32L566.2,437.22L566.33,429.99L566.46,437.38L566.99,430.8L567.13,436.46L567.26,433.3L567.52,437.94L567.92,434.95L568.05,434.17L568.19,436.43L568.32,434.02L568.58,434.41L568.72,432.49L568.85,429.27L568.98,437.63L569.25,435.24L569.38,436.2L569.65,428.54L569.91,436.98L570.04,435.05L570.18,435.72L570.31,435.57L570.44,437.25L570.84,437.88L570.97,435.91L571.1,428.49L571.24,429.08L571.37,435.54L571.5,428.59L571.63,437.17L572.03,435.39L572.16,437.9L572.56,430.17L572.69,438.01L572.83,437.87L572.96,432.93L573.09,433.07L573.22,435.82L573.49,435.1L573.62,437.67L573.76,437.35L573.89,435.46L574.15,435.25L574.29,437.23L574.42,430.32L575.35,438.23L575.48,428.14L575.74,437.76L576.27,430.92L576.41,436.23L576.54,424.04L577.07,436.95L577.2,430.56L577.33,433.48L577.6,428.84L577.73,436.78L578.13,435.67L578.26,428.05L578.39,426.21L578.53,437.13L579.06,428.52L579.19,437.35L579.32,436.7L579.59,430.04L579.72,437.72L579.85,426.19L580.38,437.78L580.65,437.62L580.78,432.62L580.91,428.51L581.05,437.32L581.44,435.35L581.58,437.69L581.71,438.19L581.84,433.69L582.11,437.99L582.5,427.38L582.64,438.07L582.77,429.01L583.43,430.26L583.57,432.62L584.1,437.6L584.23,428.15L584.63,437.29L584.76,432.84L584.89,431.53L585.16,436.44L585.42,431.31L585.55,431.97L585.69,429.56L586.22,437.38L586.75,437.21L586.88,437.43L587.01,436.96L587.14,430.98L587.41,436.91L587.54,405.09L587.67,437.52L588.34,431.65L588.47,428.86L589.27,438.09L589.4,436.74L589.8,437.43L589.93,434.72L590.19,433.68L590.72,438.09L590.86,429.71L590.99,437.52L591.12,429.69L591.65,436.96L591.78,436.24L592.05,429.13L592.45,429.15L592.58,434.24L593.38,437.45L593.51,433.39L593.64,433.95L593.77,429.76L593.91,437.52L594.57,435.61L594.7,435.82L594.97,434.75L595.1,431.41L595.63,437.78L596.03,436.8L596.16,435.89L596.42,433.33L596.56,437.71L596.69,432.1L596.95,427.21L597.48,437.8L597.62,436.26L597.75,437.26L598.01,436.61L598.15,428.85L598.55,437.4L598.68,423.22L598.94,437.24L599.08,436.76L599.21,429.41L599.74,436.63L599.87,435.69L600,435.14L600.14,437.79L600.27,432.63L600.4,436.67L600.67,430.24L600.93,435.83L601.06,409.16L601.2,436.97L601.86,436.65L601.99,434.93L602.26,434.82L602.39,437.97L602.52,436.36L602.65,428.55L603.05,437L603.19,424.72L603.45,436.26L603.58,438.28L604.64,426.33L604.78,437.29L605.04,437.08L605.17,434.39L605.31,426.13L605.7,437.68L605.84,435.96L605.97,435.77L606.23,433.14L606.37,437.36L606.5,436.66L606.63,426.43L606.76,422.96L606.9,434.99L607.03,432.64L607.16,437.33L607.29,419.64L607.69,437.53L607.83,436.94L607.96,433.97L608.09,437.59L608.36,433.3L608.75,437.48L608.89,436.69L609.55,437.1L609.68,430.9L609.81,432.93L610.48,437.44L610.61,436.54L610.74,436.91L611.01,435.2L611.14,437.82L612.07,423.09L612.2,436.31L612.33,436.89L612.46,432.63L612.6,431.45L612.73,437.2L613,435.33L613.13,438.5L613.26,435.88L613.39,429.55L614.06,437.38L614.19,430.29L614.59,428.94L614.85,437.82L614.98,435.82L615.12,428.21L615.65,436.94L615.91,434.93L616.04,431.19L616.18,436.4L616.44,436.07L616.57,422.98L617.1,437.73L617.37,436.96L617.5,436.4L617.9,437.08L618.17,428.32L618.43,429.2L618.56,438.03L618.7,432.77L619.23,434.35L619.36,436.6L619.49,437.65L619.62,427.98L619.76,437.64L620.42,437.4L620.55,425.39L620.82,434.93L621.08,432.75L621.21,425.12L621.61,437.78L621.88,436.61L622.01,425.64L622.94,437.84L623.07,437.18L623.34,436.11L623.47,431.98L623.73,437.63L623.87,428.67L624.13,435.94L624.26,430.03L624.53,437.86L624.93,433.43L625.06,428.16L625.59,437.77L625.85,437.08L625.99,436.41L626.12,434.77L626.52,437.58L626.65,436.87L626.78,436.56L627.45,436.58L627.58,417.04L627.71,435.21L627.84,434.81L627.98,437.05L628.51,428.33L628.64,431.03L628.77,437.03L628.9,437.67L629.04,434.58L629.43,433.93L629.7,437.37L629.83,430.83L629.96,436.23L630.36,422.59L630.49,422.61L631.02,437.14L631.42,436.44L631.55,433.54L631.82,436.97L631.95,429.58L632.35,437.07L632.48,427.26L632.75,435.97L632.88,436.19L633.01,436.4L633.15,420.86L633.28,437.04L633.94,430.35L634.07,432.58L634.21,431.92L634.34,436.43L634.6,437.87L635,437.56L635.13,434.8L635.93,437.64L636.06,435.12L636.46,428.41L636.59,435.46L636.86,433.8L636.99,437.61L637.52,429.18L637.65,434.09L637.79,438.09L637.92,429.75L638.58,434.14L638.71,435.85L638.98,428.63L639.38,436.52L639.51,436.01L639.77,437.47L639.91,434.16L640.17,437.87L640.44,435.5L640.57,429.55L640.7,437.18L641.1,435.01L641.23,422.66L641.5,436.86L642.03,434.38L642.16,434.57L642.29,437.15L642.43,428.99L642.96,437.03L643.09,435.05L643.35,433.32L643.49,437.69L643.62,435.2L643.75,430.34L643.88,437.18L644.41,428.39L644.55,430.49L645.08,437.14L645.21,430.47L645.34,435.72L645.47,436.01L645.61,436.33L645.74,424.72L646.4,437.2L646.53,432.58L646.67,434.2L646.93,429.73L647.2,436.99L647.33,427.58L647.99,437.62L648.13,436.73L648.26,431.74L648.39,436.95L649.05,433.96L649.19,436.66L649.32,436.81L649.45,434.68L649.58,432.23L649.72,436.82L649.98,436.06L650.11,437.38L650.38,428.9L650.78,437.63L650.91,429.3L651.04,436.32L651.57,437.22L651.84,436.34L651.97,435.62L652.1,435.74L652.24,431.92L652.9,431.43L653.56,437.93L653.69,434.61L653.83,424.45L654.36,437.48L654.49,435.36L655.02,433.87L655.28,437.4L655.42,435.1L655.55,429.89L655.68,437.48L656.08,435.64L656.21,437.15L656.34,424.34L656.88,429.36L657.01,437.22L657.14,436.68L657.27,427.77L657.41,426.15L657.54,436.95L657.94,427.27L658.2,435.92L658.33,434.82L658.47,433.51L658.73,437.24L658.86,437L659.39,437.85L659.66,428.19L659.79,434.64L659.92,437.75L660.06,427.64L660.45,433.68L660.59,425.19L660.72,438.13L661.25,436.1" style="vector-effect: non-scaling-stroke; fill: none; stroke: rgb(244, 162, 97); stroke-opacity: 1; stroke-width: 1.5px; opacity: 1;"/></g><g class="points"/><g class="text"/></g><g class="trace scatter trace4f0230" style="stroke-miterlimit: 2; opacity: 1;"><g class="fills"/><g class="errorbars"/><g class="lines"/><g class="points"><path class="point" transform="translate(661.25,436.1)" d="M3,0A3,3 0 1,1 0,-3A3,3 0 0,1 3,0Z" style="opacity: 1; stroke-width: 0px; fill: rgb(244, 162, 97); fill-opacity: 1;"/></g><g class="text"/></g></g></g><g class="overplot"/><path class="xlines-above crisp" d="M0,0" style="fill: none;"/><path class="ylines-above crisp" d="M0,0" style="fill: none;"/><g class="overlines-above"/><g class="xaxislayer-above"><g class="xtick"><text text-anchor="middle" x="0" y="536" transform="translate(60,0)" style="font-family: 'Open Sans', verdana, arial, sans-serif; font-size: 12px; fill: rgb(68, 68, 68); fill-opacity: 1; white-space: pre;">0</text></g><g class="xtick"><text text-anchor="middle" x="0" y="536" transform="translate(192.57,0)" style="font-family: 'Open Sans', verdana, arial, sans-serif; font-size: 12px; fill: rgb(68, 68, 68); fill-opacity: 1; white-space: pre;">1000</text></g><g class="xtick"><text text-anchor="middle" x="0" y="536" transform="translate(325.14,0)" style="font-family: 'Open Sans', verdana, arial, sans-serif; font-size: 12px; fill: rgb(68, 68, 68); fill-opacity: 1; white-space: pre;">2000</text></g><g class="xtick"><text text-anchor="middle" x="0" y="536" transform="translate(457.7,0)" style="font-family: 'Open Sans', verdana, arial, sans-serif; font-size: 12px; fill: rgb(68, 68, 68); fill-opacity: 1; white-space: pre;">3000</text></g><g class="xtick"><text text-anchor="middle" x="0" y="536" transform="translate(590.27,0)" style="font-family: 'Open Sans', verdana, arial, sans-serif; font-size: 12px; fill: rgb(68, 68, 68); fill-opacity: 1; white-space: pre;">4000</text></g><g class="xtick"><text text-anchor="middle" x="0" y="536" transform="translate(722.84,0)" style="font-family: 'Open Sans', verdana, arial, sans-serif; font-size: 12px; fill: rgb(68, 68, 68); fill-opacity: 1; white-space: pre;">5000</text></g></g><g class="yaxislayer-above"><g class="ytick"><text text-anchor="end" x="49" y="4.199999999999999" transform="translate(0,489.88)" style="font-family: 'Open Sans', verdana, arial, sans-serif; font-size: 12px; fill: rgb(68, 68, 68); fill-opacity: 1; white-space: pre;">0.3</text></g><g class="ytick"><text text-anchor="end" x="49" y="4.199999999999999" transform="translate(0,435.51)" style="font-family: 'Open Sans', verdana, arial, sans-serif; font-size: 12px; fill: rgb(68, 68, 68); fill-opacity: 1; white-space: pre;">0.5</text></g><g class="ytick"><text text-anchor="end" x="49" y="4.199999999999999" transform="translate(0,381.14)" style="font-family: 'Open Sans', verdana, arial, sans-serif; font-size: 12px; fill: rgb(68, 68, 68); fill-opacity: 1; white-space: pre;">0.7</text></g><g class="ytick"><text text-anchor="end" x="49" y="4.199999999999999" transform="translate(0,326.76)" style="font-family: 'Open Sans', verdana, arial, sans-serif; font-size: 12px; fill: rgb(68, 68, 68); fill-opacity: 1; white-space: pre;">0.9</text></g><g class="ytick"><text text-anchor="end" x="49" y="4.199999999999999" transform="translate(0,272.39)" style="font-family: 'Open Sans', verdana, arial, sans-serif; font-size: 12px; fill: rgb(68, 68, 68); fill-opacity: 1; white-space: pre;">1.1</text></g><g class="ytick"><text text-anchor="end" x="49" y="4.199999999999999" transform="translate(0,218.02)" style="font-family: 'Open Sans', verdana, arial, sans-serif; font-size: 12px; fill: rgb(68, 68, 68); fill-opacity: 1; white-space: pre;">1.3</text></g><g class="ytick"><text text-anchor="end" x="49" y="4.199999999999999" transform="translate(0,163.65)" style="font-family: 'Open Sans', verdana, arial, sans-serif; font-size: 12px; fill: rgb(68, 68, 68); fill-opacity: 1; white-space: pre;">1.5</text></g><g class="ytick"><text text-anchor="end" x="49" y="4.199999999999999" transform="translate(0,109.27000000000001)" style="font-family: 'Open Sans', verdana, arial, sans-serif; font-size: 12px; fill: rgb(68, 68, 68); fill-opacity: 1; white-space: pre;">1.7</text></g><g class="ytick"><text text-anchor="end" x="49" y="4.199999999999999" transform="translate(0,54.9)" style="font-family: 'Open Sans', verdana, arial, sans-serif; font-size: 12px; fill: rgb(68, 68, 68); fill-opacity: 1; white-space: pre;">1.9</text></g></g><g class="overaxes-above"/></g></g><g class="polarlayer"/><g class="ternarylayer"/><g class="geolayer"/><g class="pielayer"/><g class="glimages"/><defs id="topdefs-e75996"><g class="clips"/><clipPath id="legende75996"><rect width="170" height="29" x="0" y="0"/></clipPath></defs><g class="layer-above"><g class="imagelayer"/><g class="shapelayer"/></g><g class="infolayer"><g class="legend" pointer-events="all" transform="translate(130, 559.3000000000001)"><rect class="bg" shape-rendering="crispEdges" style="stroke: rgb(68, 68, 68); stroke-opacity: 1; fill: rgb(255, 255, 255); fill-opacity: 1; stroke-width: 0px;" width="170" height="29" x="0" y="0"/><g class="scrollbox" transform="translate(0, 0)" clip-path="url(#legende75996)"><g class="groups"><g class="traces" transform="translate(0, 14.5)" style="opacity: 1;"><g class="layers" style="opacity: 1;"><g class="legendfill"/><g class="legendlines"><path class="js-line" d="M5,0h30" style="fill: none; stroke: rgb(244, 162, 97); stroke-opacity: 1; stroke-width: 1.5px;"/></g><g class="legendsymbols"><g class="legendpoints"/></g></g><text class="legendtext user-select-none" text-anchor="start" x="40" y="4.680000000000001" style="font-family: 'Open Sans', verdana, arial, sans-serif; font-size: 12px; fill: rgb(68, 68, 68); fill-opacity: 1; white-space: pre;">Loss</text><rect class="legendtoggle" pointer-events="all" x="0" y="-9.5" width="170" height="19" style="cursor: pointer; fill: rgb(0, 0, 0); fill-opacity: 0;"/></g></g></g><rect class="scrollbar" rx="20" ry="3" width="0" height="0" style="fill: rgb(128, 139, 164); fill-opacity: 1;" x="0" y="0"/></g><g class="g-gtitle"><text class="gtitle" x="400" y="25" text-anchor="middle" style="font-family: 'Open Sans', verdana, arial, sans-serif; font-size: 17px; fill: rgb(68, 68, 68); opacity: 1; font-weight: normal; white-space: pre;">Training loss at each mini-batch</text></g><g class="g-xtitle"/><g class="g-ytitle"/></g></svg>