<svg class="main-svg" xmlns="http://www.w3.org/2000/svg" xmlns:xlink="http://www.w3.org/1999/xlink" width="800" height="600" style="" viewBox="0 0 800 600"><rect x="0" y="0" width="800" height="600" style="fill: rgb(255, 255, 255); fill-opacity: 1;"/><defs id="defs-62ed80"><g class="clips"><clipPath id="clip62ed80xyplot" class="plotclip"><rect width="700" height="463"/></clipPath><clipPath class="axesclip" id="clip62ed80x"><rect x="60" y="0" width="700" height="600"/></clipPath><clipPath class="axesclip" id="clip62ed80y"><rect x="0" y="50" width="800" height="463"/></clipPath><clipPath class="axesclip" id="clip62ed80xy"><rect x="60" y="50" width="700" height="463"/></clipPath></g><g class="gradients"/></defs><g class="bglayer"/><g class="layer-below"><g class="imagelayer"/><g class="shapelayer"/></g><g class="cartesianlayer"><g class="subplot xy"><g class="layer-subplot"><g class="shapelayer"/><g class="imagelayer"/></g><g class="gridlayer"><g class="x"><path class="xgrid crisp" d="M0,50v463" transform="translate(162.61,0)" style="stroke: rgb(238, 238, 238); stroke-opacity: 1; stroke-width: 1px;"/><path class="xgrid crisp" d="M0,50v463" transform="translate(265.23,0)" style="stroke: rgb(238, 238, 238); stroke-opacity: 1; stroke-width: 1px;"/><path class="xgrid crisp" d="M0,50v463" transform="translate(367.84,0)" style="stroke: rgb(238, 238, 238); stroke-opacity: 1; stroke-width: 1px;"/><path class="xgrid crisp" d="M0,50v463" transform="translate(470.46,0)" style="stroke: rgb(238, 238, 238); stroke-opacity: 1; stroke-width: 1px;"/><path class="xgrid crisp" d="M0,50v463" transform="translate(573.07,0)" style="stroke: rgb(238, 238, 238); stroke-opacity: 1; stroke-width: 1px;"/><path class="xgrid crisp" d="M0,50v463" transform="translate(675.69,0)" style="stroke: rgb(238, 238, 238); stroke-opacity: 1; stroke-width: 1px;"/></g><g class="y"><path class="ygrid crisp" d="M60,0h700" transform="translate(0,423.29)" style="stroke: rgb(238, 238, 238); stroke-opacity: 1; stroke-width: 1px;"/><path class="ygrid crisp" d="M60,0h700" transform="translate(0,355.67)" style="stroke: rgb(238, 238, 238); stroke-opacity: 1; stroke-width: 1px;"/><path class="ygrid crisp" d="M60,0h700" transform="translate(0,288.06)" style="stroke: rgb(238, 238, 238); stroke-opacity: 1; stroke-width: 1px;"/><path class="ygrid crisp" d="M60,0h700" transform="translate(0,220.44)" style="stroke: rgb(238, 238, 238); stroke-opacity: 1; stroke-width: 1px;"/><path class="ygrid crisp" d="M60,0h700" transform="translate(0,152.82999999999998)" style="stroke: rgb(238, 238, 238); stroke-opacity: 1; stroke-width: 1px;"/><path class="ygrid crisp" d="M60,0h700" transform="translate(0,85.22)" style="stroke: rgb(238, 238, 238); stroke-opacity: 1; stroke-width: 1px;"/></g></g><g class="zerolinelayer"><path class="xzl zl crisp" d="M0,50v463" transform="translate(60,0)" style="stroke: rgb(68, 68, 68); stroke-opacity: 1; stroke-width: 1px;"/><path class="yzl zl crisp" d="M60,0h700" transform="translate(0,490.9)" style="stroke: rgb(68, 68, 68); stroke-opacity: 1; stroke-width: 1px;"/></g><path class="xlines-below"/><path class="ylines-below"/><g class="overlines-below"/><g class="xaxislayer-below"/><g class="yaxislayer-below"/><g class="overaxes-below"/><g class="plot" transform="translate(60, 50)" clip-path="url(#clip62ed80xyplot)"><g class="scatterlayer mlayer"><g class="trace scatter trace504112" style="stroke-miterlimit: 2; opacity: 1;"><g class="fills"/><g class="errorbars"/><g class="lines"><path class="js-line" d="M0,23.15L0.62,91.4L0.82,64.67L1.03,40.9L1.44,125.35L1.85,81.4L2.05,116.71L2.26,115.21L2.46,107.17L2.67,107.95L2.87,63.43L3.49,129.57L3.69,64.36L4.72,155.86L4.93,149.82L5.13,80.17L5.95,162.75L6.16,144.32L6.98,91.8L7.18,173.51L7.8,111.02L8,197.25L8.41,82.77L8.82,134.85L9.03,108.72L9.24,154.92L9.44,124.07L9.65,79.72L10.06,215.67L10.26,183.03L10.47,85.8L11.49,148.67L11.7,124.17L11.9,106.26L12.11,118.9L12.31,139.54L12.52,129.21L12.72,189.04L13.55,135.02L13.75,157.52L14.37,133.26L14.57,173.03L14.78,87.45L15.19,145.66L15.39,182.7L15.6,213.29L15.8,186.85L16.01,92.61L16.42,121.19L16.62,97.99L16.83,97.16L17.24,84.47L17.65,185.11L17.85,110.68L18.47,163.66L18.88,145.91L19.09,128.14L19.5,189.36L19.7,156.29L19.91,131.1L20.32,170.57L20.93,165.74L21.14,169.17L21.55,200.29L21.96,96.81L22.16,114.72L22.37,161.2L22.78,117.76L22.99,140.76L23.19,189.25L23.6,211.8L24.22,83.99L24.42,157.58L24.63,134.68L24.83,185.1L25.04,172.96L25.45,195.39L25.65,102.91L25.86,143.6L26.06,129.1L26.47,165.05L26.68,105.14L26.89,109.02L27.09,139.99L27.3,144.14L27.5,98.9L27.71,99.19L27.91,152.44L28.12,157.29L28.32,184.55L28.53,245.9L28.73,120.84L28.94,156.69L29.14,58.67L29.55,151.72L29.96,83.21L30.17,128.09L30.37,133.26L30.58,172.34L30.78,184.16L30.99,131.75L31.19,73.71L31.4,194.2L31.61,133.39L31.81,165.08L32.02,144.73L32.43,164.9L32.63,163.91L33.25,216.05L33.45,142.15L34.27,193.57L34.48,188.79L34.68,190.9L34.89,86.88L35.3,134.81L35.5,163.28L36.12,175.76L36.33,114.39L36.53,248.47L37.35,109.06L37.56,231.89L37.76,163.6L38.38,171.93L38.58,209.49L38.79,205.15L38.99,211.98L39.2,86.15L39.4,203.68L40.02,191.1L40.23,126.06L40.43,119.75L40.64,182.32L40.84,139.48L41.05,198.5L41.25,214.33L41.46,136.07L42.07,141.46L42.28,158.21L42.48,158.77L42.69,73.13L43.51,239.74L43.71,144.63L43.92,159.49L44.12,90.39L44.53,167.72L44.95,165.56L45.15,153.3L45.36,140.32L45.56,184.2L45.77,154.38L45.97,244.39L47,100.93L47.2,193.44L47.41,209.14L47.61,166.62L48.02,164.1L48.23,186.55L48.43,158.62L48.84,132.26L49.05,235.8L49.26,196.76L49.46,174.85L49.87,225.88L50.28,213.7L50.49,148.96L50.9,208.6L51.31,164.68L51.51,146.74L51.72,124L51.92,166.82L52.13,192.34L52.33,235.43L52.54,231.92L52.74,148.45L53.77,221.06L53.98,126.2L54.18,119.97L54.39,193.25L54.59,190.55L54.8,151.98L55.21,177L55.41,232.77L55.62,179.14L55.82,254.38L56.23,180.71L56.44,165.47L56.64,233.2L57.05,220.7L57.26,187.97L57.46,236L57.87,182.99L58.08,186.87L58.29,183.94L58.49,188.8L58.7,235.43L58.9,171.29L59.11,236.73L59.52,203.06L59.72,216.78L59.93,275.87L60.13,199.02L60.34,259.96L60.54,220.47L60.75,186.33L61.16,198.01L61.36,221.3L61.57,166.2L61.77,250.99L62.18,199.5L62.39,231.03L62.6,198.33L62.8,219.71L63.01,262.02L63.42,134.11L63.62,193.91L63.83,227.81L64.44,190.05L64.65,258.43L64.85,195.24L65.26,197.2L65.47,250.51L65.67,243.4L65.88,246.26L66.08,272.79L66.49,239.24L66.7,274.48L66.9,164.69L67.52,218.77L67.73,260.54L68.14,302.26L68.34,135.23L68.55,222.51L68.75,214.73L68.96,273.35L69.57,247.83L69.78,254.63L70.8,124.09L71.01,163.18L71.83,256.71L72.04,243.62L72.24,274.17L72.45,218.52L72.65,239.19L72.86,251.38L73.06,288.39L73.47,228.76L73.68,267.58L73.88,239.99L74.29,233.81L74.5,250.28L74.7,267.52L74.91,261.11L75.11,224.86L75.32,319.15L75.73,297.22L75.93,238.1L76.14,303.67L76.35,235.95L76.55,291.43L76.76,253.36L77.17,310.52L77.37,261.27L77.58,251.19L77.99,239.09L78.19,262.05L78.4,261.27L78.6,215.93L78.81,190.2L79.01,262.03L79.22,258.95L79.42,306.66L79.83,280.25L80.04,243.42L80.24,311.48L80.45,225.95L80.66,291.54L80.86,243.58L81.07,214.16L81.27,270.56L81.48,285L82.5,208.69L82.71,273.11L82.91,277.37L83.12,206.88L83.94,296.23L84.14,283.67L84.35,234.66L84.55,306.61L84.97,244.42L85.17,267.03L85.58,302.85L85.79,233.48L86.81,317.83L87.02,257.38L87.22,284.5L87.43,275.07L87.63,219.5L87.84,315.88L88.04,206.81L88.25,266.48L88.45,203.85L88.86,147.35L89.07,287.06L89.27,209.11L89.69,245.25L89.89,299.98L90.1,290.47L90.3,244.81L90.71,301.2L90.92,255.08L91.12,227.56L91.94,310.87L92.15,320.95L92.35,323.43L92.56,306.22L92.76,194.21L93.38,228.53L93.58,235.07L94.61,321.68L94.82,243.48L95.43,285.71L95.64,261.68L95.84,353.69L96.25,185.57L96.46,308.09L96.66,296.55L97.07,238.85L97.28,262.9L97.48,299.85L97.89,291.52L98.1,303.61L98.31,273.48L98.51,295.77L98.72,343.32L98.92,257.49L99.54,283.94L99.74,308L100.36,311.94L100.56,264.12L100.77,291.45L100.97,334.12L101.38,323.35L101.59,297.81L101.79,300.99L102,367.95L102.2,255.68L102.61,331.34L102.82,330.07L103.03,284L103.44,349.67L103.64,320.31L103.85,336.49L104.26,329.27L104.46,281.89L105.08,357.79L105.28,317.91L105.49,290.69L105.69,292.24L105.9,289.75L106.1,354.47L106.31,267.21L106.92,297.28L107.13,323.04L107.34,344.63L107.54,309.41L107.75,339.13L107.95,279.4L108.16,326.09L108.77,302.58L108.98,279.02L109.18,255.75L109.39,325.3L109.59,306.61L109.8,340.49L110,319.99L110.21,356.95L110.62,277.82L111.03,287.92L111.23,314.67L111.44,270.42L111.64,326.14L111.85,290.01L112.06,306.04L112.26,308.64L112.47,301.93L112.67,334.81L112.88,351.68L113.08,301.42L113.29,343.13L113.9,323.62L114.11,313.57L114.31,355.98L114.72,325.62L114.93,293.41L115.13,351.6L115.54,337.11L115.75,293.84L116.37,337.45L116.98,333.68L117.19,315.24L117.8,251.78L118.01,312.72L118.21,255.56L118.42,340.11L118.62,268.29L118.83,295.48L119.24,338.46L119.44,284.55L119.65,304.06L119.85,347.08L120.26,280.08L120.47,304.62L120.68,302.32L120.88,325.59L121.09,295.53L121.29,354.5L121.5,345.07L121.7,345.45L121.91,292.85L122.11,381.76L122.52,291.47L122.73,349.61L122.93,307.98L123.34,353.53L123.55,337.86L123.75,314.07L124.57,366.98L124.78,356.11L124.98,370.15L125.19,332.32L125.6,368L125.81,355.51L126.22,321.52L126.42,350.07L126.83,327.4L127.45,382.47L127.65,372.88L127.86,337.51L128.47,360.76L128.68,362.04L129.09,352.19L129.29,305.73L129.71,401.22L130.12,356.55L130.32,338.06L130.53,362.24L130.73,325.96L131.14,347.35L131.35,354.69L131.55,375.97L131.96,362.89L132.17,353.08L132.37,400L132.78,343L132.99,369.01L133.19,385.43L133.4,355.01L133.6,368.19L133.81,367.19L134.22,381.92L134.63,287.44L134.84,332.43L135.04,394.4L135.86,284.15L136.07,354.15L136.27,371.99L136.48,353.57L136.68,362.62L136.89,346.79L137.5,364.47L137.71,339.95L137.91,350.62L138.12,255.02L138.53,344.36L138.74,313.99L138.94,269.93L139.35,377.42L139.56,373.42L139.76,288.78L140.17,370.87L140.38,361.36L140.58,282.24L140.99,370.97L141.4,353.65L141.61,379.21L142.02,310.82L142.43,358.57L142.63,367.3L142.84,334.73L143.25,375.43L143.46,359.89L144.07,397.49L144.28,340.77L144.48,338.11L144.69,370.57L144.89,349.99L145.1,373.73L145.3,350.3L145.51,381.56L145.71,389.47L145.92,347.78L146.12,343.17L146.33,367.99L146.94,404.32L147.15,386.25L147.35,386.52L147.97,331.67L148.18,398.02L148.59,409.24L149,360.22L149.2,390.23L149.41,409.51L149.61,392.71L149.82,373.51L150.64,388.63L150.84,374.73L151.05,373.98L151.25,381.95L151.46,389.17L151.66,368.31L151.87,327.19L152.08,363.62L152.28,399.12L153.31,307.92L153.51,358.82L153.72,404.38L154.13,370.1L154.33,361.39L154.54,363.91L154.74,403.16L154.95,416.16L155.15,354.49L155.56,399.89L155.77,386.32L155.97,361.84L156.18,326.71L156.59,376.11L156.8,392.2L157.21,415.02L157.41,355.9L157.62,367.15L157.82,396.98L158.23,381.49L158.44,417.34L158.64,376.97L158.85,379.52L159.05,346.67L159.46,391.77L159.67,376.79L159.87,306.19L160.28,416.51L160.69,348.55L160.9,355.68L161.11,354.93L161.31,402.58L161.52,395.39L161.72,408.34L161.93,371.28L162.13,370.91L162.34,353.07L162.54,391.66L162.95,378.33L163.16,352.36L163.77,387.37L163.98,251.6L164.18,364.47L164.59,337.63L164.8,350.07L165,402.45L165.62,336.48L165.83,353.87L166.03,395.62L166.24,398.59L166.44,365.91L166.65,347.8L166.85,373.91L167.06,383.16L167.47,388.97L167.67,349.79L168.08,365.95L168.29,366.26L168.49,372.39L168.7,405.5L168.9,326.69L169.31,390.66L169.52,386.26L169.72,386.44L169.93,367.4L170.14,360.7L170.34,392.82L170.55,417.49L170.75,369.93L170.96,409.26L171.16,393.67L171.37,383.52L171.57,415.94L171.78,369.31L172.19,405.51L172.39,407.83L172.6,403.86L172.8,414.91L173.62,381.61L173.83,398.46L174.24,373.01L174.45,384.77L174.65,398.54L174.86,379.55L175.06,405.82L175.27,418.58L175.47,383.53L176.09,396.74L176.29,382.23L176.5,352.47L176.7,381.46L176.91,411.79L177.11,339.24L177.73,348.73L177.93,362.32L178.14,347.35L178.34,406.03L178.55,346.9L178.76,412.97L178.96,393.2L179.17,397.41L179.37,386.9L179.58,400L179.78,405.15L179.99,392.19L180.19,400.14L180.4,416.18L181.01,401.94L181.22,411.01L181.42,412.86L181.63,352.42L182.04,377.26L182.24,398.7L182.45,389.7L182.65,414.18L183.48,334.68L183.68,408.24L183.89,408.74L184.09,374.97L184.3,381.35L184.5,415.21L184.71,408.91L184.91,378.36L185.53,413.21L185.73,407.14L185.94,357.4L186.55,407.29L186.76,387.77L186.96,399L187.17,424.69L187.37,387.04L187.58,415.7L187.79,399.71L187.99,397.54L188.2,406.47L188.4,403.58L188.61,380.52L189.02,423.54L189.22,383.54L189.43,383.69L189.63,393.28L189.84,386.92L190.04,374.62L190.25,421.25L190.66,353.52L190.86,415.8L191.07,380.4L191.27,381.23L191.48,392.65L192.3,399.18L192.51,379.78L192.71,360.36L192.92,415.72L193.12,367.14L193.33,415.9L193.74,382.83L193.94,359.88L194.35,421.27L194.76,378.18L194.97,365.55L195.17,323.26L195.38,417.36L195.58,416.6L195.79,409.21L195.99,339.8L196.82,413.69L197.02,409.67L197.23,420.29L197.43,396.52L197.64,348.77L198.25,420.21L198.66,409.78L198.87,415.26L199.28,401.77L199.48,406.39L199.69,364.11L199.89,420.3L200.3,396.26L200.51,353.29L201.13,408.35L201.33,398.02L201.54,397.59L201.95,395.06L202.15,416.05L202.36,394.39L202.77,412.91L202.97,386.75L203.59,410.1L203.79,390.27L204.2,370.88L204.61,420.82L204.82,385.68L205.02,421.32L205.64,408.67L205.85,396.45L206.05,396.31L206.26,399.31L206.67,384.45L206.87,424.06L207.08,374.85L207.49,411.6L207.69,420.56L207.9,369.5L208.51,399.26L208.72,386.56L208.92,415.12L209.13,398.4L209.33,365.13L209.54,411.3L210.16,403.14L210.36,412.25L210.77,416.26L210.98,379.99L211.18,406.86L211.39,359.9L211.59,422.16L211.8,368.82L212,393.97L212.21,390.01L212.41,419.31L213.03,402.84L213.23,410.34L213.44,411.31L213.64,423.07L213.85,385.49L214.05,385.95L214.26,429.62L215.08,357.06L215.29,394.99L215.49,408.37L215.7,376.36L215.9,381.3L216.93,427.15L217.13,393.59L217.54,378.12L217.75,423.79L218.16,413.25L218.36,393.29L218.77,426.13L218.98,390.61L219.19,425.01L219.39,411L219.6,410.33L219.8,427.65L220.21,407.61L220.42,428.25L220.62,431.07L220.83,407.69L221.03,407.49L221.24,392.05L221.44,398.29L221.65,429.89L221.85,423.76L222.06,381.96L222.26,425.06L222.88,397.45L223.08,419.77L223.29,424.18L223.5,421.88L223.7,381.79L224.32,421.33L224.52,413.25L224.73,394.5L224.93,423.66L225.55,420.43L225.75,350.27L225.96,414.36L226.57,406.76L226.78,388.35L227.19,363.95L227.8,422.48L228.01,424.86L228.22,393.85L228.63,412.35L228.83,424.65L229.04,426.02L229.24,397.99L229.45,426.54L229.65,372.56L229.86,409.07L230.06,391.35L230.88,423.75L231.09,391.23L231.7,419.92L231.91,380.36L232.32,433.78L232.53,430.35L232.73,390.87L233.35,421.8L233.55,392.07L233.96,430.74L234.37,410.88L234.58,376.84L235.4,430.51L235.6,397.56L236.01,386.12L236.42,426.5L236.63,422.52L236.84,392.7L237.04,429.08L237.25,395.73L237.45,418.27L237.66,422.58L237.86,368.48L238.07,431.48L238.68,399.63L238.89,415.67L239.09,379.93L239.5,420.47L239.71,390.54L239.91,399.62L240.32,427.35L240.53,414.62L240.73,407.01L240.94,402.86L241.14,419.12L241.35,375.71L241.56,429.23L241.97,387.35L242.17,415.45L242.58,412.06L242.79,419.16L242.99,351.29L243.61,422.92L243.81,407.93L244.02,409.45L244.43,401.75L244.84,432.58L245.04,430.89L245.25,392.08L245.87,434.67L246.07,375.68L246.89,420.53L247.1,378.33L247.51,429.41L247.71,413.44L247.92,382.36L248.12,425.46L248.74,407.16L248.94,422.12L249.56,429.51L249.76,417.89L249.97,414.19L250.17,431.21L250.59,400.31L250.79,424.33L251,426.39L251.41,430.23L251.61,405.19L251.82,424.71L252.23,429.62L252.43,413.98L252.64,413.68L252.84,387.98L253.46,435.44L253.66,421.22L253.87,427.32L254.28,405.02L254.48,422.55L254.69,419.09L254.9,427.13L255.1,422.82L255.31,424.12L255.72,430.4L255.92,423.4L256.13,428.44L256.33,360.89L256.74,426.09L257.15,423.11L257.36,415.73L257.56,418.67L257.77,399.6L258.18,436.15L258.59,429.78L258.79,352.56L259,433.89L259.62,408.8L259.82,426.83L260.03,434.78L260.23,419L260.44,423.28L260.64,422.68L261.05,428.58L261.46,360.92L261.67,409.72L262.08,420.57L262.28,383.25L262.49,330.32L262.69,421.22L262.9,409.06L263.1,385.65L263.51,421.32L263.72,396.53L263.93,339.84L264.13,401.95L264.34,388.61L264.54,391.83L264.95,426.5L265.16,342.96L266.18,434.99L266.39,417.41L266.59,381.78L267,403.86L267.21,406.86L267.41,410.83L267.62,395.1L268.03,391.92L269.26,433.28L269.47,425.84L269.67,435.72L269.88,417.64L270.08,431.69L270.29,420.09L270.49,433.68L270.7,416.79L270.9,427.07L271.11,413.11L271.31,403.18L271.52,414.18L271.93,405.9L272.13,404.28L272.34,416.02L272.55,391.28L272.96,414.04L273.16,411.77L273.37,418.27L273.57,375.03L274.19,434.79L274.39,405.54L274.6,400.2L275.01,428.78L275.21,424.52L275.42,402.51L275.62,387.77L275.83,424.35L276.03,401.19L276.24,426.1L276.44,430.2L276.85,427.71L277.06,419.46L277.47,429.35L277.68,419.95L277.88,423.33L278.09,404.16L278.29,371.94L278.7,420.28L278.91,425.6L279.11,426.36L279.32,425.04L279.52,419.7L280.34,431.61L280.55,419.18L280.75,434.15L280.96,412.17L281.16,421.97L281.37,405.49L281.78,432.75L282.19,413.04L282.4,409.39L282.6,408.09L282.81,429.42L283.01,432.9L283.22,415.54L283.42,370.01L283.83,433.17L284.04,423.57L284.45,433.96L284.65,419.99L284.86,381.84L285.27,419.11L285.47,426.41L285.68,438.25L285.88,416.97L286.09,433.62L286.3,422.75L286.91,433.14L287.12,408.71L287.32,411.05L287.53,430.56L287.94,403.57L288.14,425.51L288.55,431.39L288.76,426.73L288.96,409.39L289.17,436.69L289.78,423.78L289.99,408.69L290.61,425.96L290.81,399.17L291.43,428.86L291.63,425.9L291.84,403.4L292.04,437.14L292.66,418.6L292.86,430.06L293.07,433.6L293.27,418.16L293.48,434.37L293.89,429.3L294.09,401.57L294.3,424.18L294.92,422.98L295.12,422.44L295.33,405.72L295.53,432.17L295.74,428.17L295.94,435.5L296.56,410.95L296.76,429.55L296.97,434.46L297.17,404.43L297.38,436.71L297.79,420.58L297.99,433.65L298.2,413.18L298.81,416.29L299.02,415.03L299.64,435.68L299.84,423.77L300.05,429.84L300.25,430.03L300.46,425.25L300.66,427.68L300.87,426.05L301.07,410.92L301.89,432.54L302.1,425.96L302.3,434.31L302.51,436.52L302.71,421.12L302.92,425.57L303.12,423.29L303.33,415.33L303.53,432.41L303.74,407.56L303.95,427.72L304.15,418.85L304.56,429.98L304.77,428.41L304.97,416.73L305.38,412.55L306,434.57L306.2,425.72L306.41,430.82L306.61,403.3L307.64,427.23L307.84,433.65L308.05,434.02L308.25,402.15L308.46,405.65L308.67,434.35L309.49,382.57L309.69,433.97L310.72,405.16L310.92,435.14L311.54,428.99L311.74,396.69L312.15,433.82L312.56,429.02L312.77,424.6L312.98,435.84L313.18,423.43L313.59,431.42L313.8,427.65L314.21,407.68L314.41,414.13L314.62,434.04L314.82,436.7L315.03,419.18L315.23,431.67L315.85,430.92L316.05,395.06L316.26,435.89L316.87,432.68L317.08,433.76L317.7,436.2L317.9,403.55L318.11,431.96L318.31,434.03L318.52,425.97L318.72,436.76L319.34,435.84L319.54,424.31L319.75,434.28L319.95,417.81L320.16,409.28L320.36,433.22L320.77,395.77L320.98,413.49L322.01,435.65L322.21,436.8L322.42,418.49L322.83,433.91L323.03,431.43L323.24,435.98L323.44,430.77L323.85,435.16L324.06,434.75L324.47,422.24L324.67,435.76L324.88,433.25L325.08,420.42L325.29,425.57L325.49,403.14L325.7,432.57L326.11,418.19L326.32,402.03L326.93,437.03L327.34,435.03L327.55,419.93L328.37,433.25L328.57,427.12L328.78,429.74L328.98,410.74L329.19,409.93L329.39,429.63L329.6,429.17L329.8,399.01L330.01,436.59L330.63,418.96L330.83,417.23L331.04,432.15L331.65,430.37L331.86,431.62L332.06,401.38L332.27,434.89L332.47,429.23L332.68,427.34L332.88,427.46L333.09,415.38L333.5,435.53L333.7,429.07L333.91,416.96L334.52,433.42L334.73,411.88L334.93,436.59L335.35,403.98L335.55,424.21L335.76,432.85L335.96,431.27L336.17,423.13L336.37,417.9L336.58,432.53L336.78,435.35L336.99,427.5L337.4,426.48L337.6,428.93L337.81,425.49L338.63,432.17L338.83,427.99L339.04,418.27L339.24,433.03L339.45,431.15L339.66,427.76L340.07,433.84L340.27,410.25L340.68,406L341.09,435.73L341.3,431.38L341.5,434L341.71,426.65L341.91,426.42L342.12,432.84L342.73,419.9L342.94,432.16L343.55,425.45L343.76,417.14L343.96,411.82L344.17,424.86L344.38,427.58L344.58,429.68L344.79,419.31L344.99,419.61L345.2,429.77L345.4,427.73L345.61,433.06L345.81,414.17L346.02,420.1L346.22,403.57L346.43,436.23L347.04,432.84L347.25,426.81L347.45,395.85L347.66,435.98L347.86,428.81L348.07,436.03L348.48,394.37L348.69,433.6L348.89,429.61L349.1,430.65L349.3,436.6L349.51,405.36L349.92,434.78L350.12,432.6L350.33,427.5L350.53,436.57L350.74,431.96L350.94,432.37L351.15,418.86L351.76,424.96L351.97,433.6L352.17,433.05L352.38,435.99L352.58,417.08L353,433.65L353.2,438.07L353.61,435.01L353.82,417.77L354.02,433L354.23,420.57L354.43,405.72L354.64,433.9L355.25,424.54L355.46,434.8L355.66,435.46L355.87,434.96L356.07,423.38L357.1,435.22L357.3,421.16L357.72,412.42L358.13,437.14L358.33,426.4L358.54,432.47L358.74,426.48L358.95,414.88L359.36,414.16L359.77,436.36L359.97,421.47L360.59,435.77L360.79,433.98L361,430.68L361.2,426.75L361.41,436.23L361.61,437.94L361.82,422.17L362.44,429.59L362.64,433.78L363.46,413.74L363.67,417.88L363.87,431.66L364.08,435.5L364.69,433.04L364.9,434.76L365.1,423.76L365.72,428.47L365.92,432.23L366.13,430.51L366.33,433.36L366.54,436.96L367.16,430.57L367.36,409.32L367.77,437.64L368.18,428.7L368.39,433.59L368.59,417.96L369,424.28L369.21,432.4L369.82,425.62L370.03,430.86L370.44,422.9L370.85,428.35L371.06,430.44L371.88,436.55L372.08,379.73L372.9,434.54L373.11,432.88L373.72,423.7L374.13,427.14L374.34,435.53L374.54,435.44L374.75,407.79L375.37,435.71L375.57,429.8L375.78,425.69L375.98,435.2L376.19,425.41L376.39,405.96L376.6,435.82L377.21,435.08L377.42,428.89L378.03,436.52L378.24,433.9L378.44,422.67L378.85,424.91L379.06,436.18L379.26,434.24L379.47,412.94L380.09,436.59L380.29,431.8L380.5,417.16L381.32,434.66L381.52,416.46L382.14,436.32L382.34,430.9L382.55,430.98L383.37,437.49L383.57,424.21L384.4,437.28L384.6,429.01L384.81,435.16L385.01,425.79L385.22,416.68L385.42,412.28L385.63,430.61L385.83,435.87L386.24,430.42L386.45,434.26L386.65,410.4L386.86,436.47L387.27,430L387.47,397.91L387.88,435.29L388.29,432.04L388.5,427.65L388.91,433.43L389.12,410.83L389.32,397.98L389.53,430.62L389.73,429.88L389.94,411.22L390.14,434.94L390.35,433.53L390.55,433.75L390.76,398.81L391.17,430.42L391.37,426.56L392.19,437.55L392.4,436.08L392.6,438.5L392.81,434.14L393.01,437.08L393.22,421.83L393.84,434.42L394.04,432.88L394.25,425.69L394.45,433.81L394.66,415.12L394.86,413.88L395.27,436.28L395.68,433.51L395.89,431.89L396.09,431.45L396.3,433.39L396.91,432.54L397.12,435.19L397.53,414.43L397.74,435.97L397.94,430.18L398.35,432.39L398.56,434.53L398.97,419.56L399.17,424.59L399.38,436.22L399.58,435.48L399.79,423.44L400.2,433.89L400.61,427.84L400.81,432.7L401.02,424.86L401.43,433.52L401.63,436.44L401.84,437.39L402.04,422.51L402.46,435.48L402.87,430.96L403.07,437.14L403.28,434.58L403.89,435.58L404.1,411.29L404.3,436.19L404.92,422L405.12,431.21L405.33,386.35L405.53,435.55L405.74,404.48L405.94,436.19L406.15,436.82L406.35,433.8L406.97,421.14L407.18,428.63L407.38,424.63L407.59,436.12L408.2,431.88L408.41,436.3L409.23,425.01L409.43,430.36L409.64,419.55L409.84,436.02L410.05,427.54L410.25,434.22L410.87,434.79L411.08,427.51L411.28,428.77L411.49,434.59L412.1,434.93L412.31,415.25L412.51,437.63L412.72,438.51L412.92,426.11L413.13,434.82L413.74,429.41L413.95,429.52L414.15,422.88L414.36,434.8L414.56,436.26L414.77,431.91L414.97,379.08L415.8,434.69L416,435.56L416.62,429.29L416.82,437.3L417.03,437.76L417.23,425.37L417.44,435.36L418.05,434.52L418.26,427.56L418.46,427.51L418.67,431.88L419.08,436.9L419.28,411.54L419.49,427.59L419.69,433.07L419.9,434.85L420.11,418.14L420.52,431.47L420.93,425.95L421.13,428.54L421.34,403.8L421.54,429.52L421.75,428.85L421.95,435.73L422.57,436.95L422.77,424L422.98,426.31L423.18,436.11L423.8,423.71L424,437.92L424.83,407.49L425.03,434.57L425.44,437.1L425.65,428.2L425.85,434.36L426.06,422.74L426.47,432.79L426.67,436.67L427.08,431.05L427.29,435.24L427.49,435.84L427.9,435.39L428.11,425.09L428.52,436.73L428.93,433.57L429.14,386.48L429.96,436.62L430.16,434.08L430.37,431.67L430.57,436.94L430.78,438.66L431.19,433.6L431.6,436.55L431.8,436L432.62,392.19L432.83,435.39L433.03,437.81L433.24,399.41L434.27,432.65L434.47,430.62L435.29,435.32L435.5,428.22L435.7,425.05L435.91,432.46L436.11,427.48L436.32,430.85L436.73,430.55L436.93,439.39L437.14,427.95L437.55,435.64L437.75,437.56L438.58,430.82L438.78,436.76L439.19,433.29L439.4,408.28L439.81,433.68L440.01,433.11L440.22,401.57L440.63,430.2L441.24,430.03L441.45,436.92L441.86,432.97L442.06,436.17L442.27,436.68L442.48,431.98L442.68,437.96L442.89,437.53L443.09,437.47L443.71,411.5L443.91,436.47L444.53,425.68L444.73,434.16L444.94,430.94L445.14,437.39L445.35,435.38L445.55,411.09L445.96,436.42L446.37,427.75L446.58,404.4L447.2,437.22L447.61,436.84L447.81,435.14L448.02,436.66L448.22,436.25L448.43,425.55L449.04,436.22L449.25,425.15L450.27,438.07L450.48,435.39L451.09,422.68L451.3,434.36L451.92,429.68L452.12,434.47L452.53,437.86L452.74,429.3L453.35,434.5L453.56,428.08L453.97,422.94L454.38,438.54L454.58,429.94L454.79,436.4L455.4,434.36L455.61,409.76L456.23,437.21L456.43,432.72L456.64,429.15L456.84,436.27L457.05,410.07L457.66,436.88L457.87,436.08L458.07,430.39L458.48,435.41L458.69,415.52L458.89,437.38L459.51,429.66L459.71,432.22L459.92,420.09L460.12,436.22L460.54,425.19L460.74,430.6L461.15,436.17L461.56,433.69L461.77,436.42L462.59,420.07L462.79,436.88L463,434.27L463.2,410.81L463.41,434.98L464.02,430.56L464.23,411.57L464.43,435.98L465.05,427.41L465.26,432.95L465.46,437.63L465.67,430.71L465.87,435.43L466.08,433.13L466.28,432.78L466.49,429.21L466.9,438.09L467.31,437.95L467.51,433.19L467.72,437.34L467.92,420.79L468.13,438.28L468.74,429.74L468.95,406.65L469.77,436.99L469.98,432.95L470.18,437.47L470.39,428.41L470.59,427.32L471,425.28L471.21,437.99L471.41,429.63L471.62,428.66L471.82,438.06L472.23,434.33L472.44,423.67L472.64,435.52L473.05,416.63L473.26,431.02L473.46,435.92L473.88,432.04L474.08,437.21L474.29,435.53L474.49,434.58L474.7,422.22L475.11,433.68L475.31,383.02L475.72,437.2L476.13,436.18L476.34,435.72L476.54,430.18L477.16,431.15L477.36,436.57L477.77,438.2L477.98,429.98L478.19,434.23L478.39,436.9L478.6,398.02L479.01,436.53L479.21,430.4L479.62,436.97L479.83,428.18L480.03,432.44L480.24,418.66L480.44,434.82L481.06,429.9L481.26,432.77L481.67,434.37L481.88,432.01L482.08,432.33L482.29,429.31L482.7,427.49L482.91,436.94L483.11,435.78L483.32,426.67L483.52,427.21L483.73,434.36L483.93,437.57L484.14,431.8L484.34,430.2L484.55,430.14L484.75,436.81L485.57,428.55L485.78,437.89L486.19,432.51L486.39,438.52L486.6,433.88L486.8,437.47L487.22,428.44L487.42,430.21L487.63,435.77L487.83,428.38L488.24,438.15L488.45,436.44L488.65,424.12L489.06,431.53L489.27,432.9L489.47,433.52L489.68,416.96L490.5,436.03L490.7,430.06L491.11,433.19L491.32,430.81L491.53,424.45L491.73,426.6L491.94,411.47L492.76,438.62L492.96,433.2L493.17,430.89L493.37,437.79L494.19,427.05L494.4,433.11L494.6,435.9L494.81,427.61L495.22,438.02L495.42,417L495.63,437.14L496.25,435.35L496.45,435.06L496.66,435.02L496.86,432.07L497.48,436.54L497.68,435.11L497.89,403.29L498.91,435.4L499.12,420.99L499.73,435.99L499.94,428.33L500.14,437.14L500.97,423.57L501.17,427.55L501.38,436.06L502.4,432.07L502.61,432.9L502.81,419.94L503.22,432.78L503.43,435.81L503.84,431.82L504.25,432.98L504.45,437.35L505.48,424.18L505.69,438.52L506.1,429.48L506.3,435.27L506.51,436.51L506.71,437.75L506.92,424.75L507.53,436.28L507.74,425.21L508.35,436.65L508.56,433L508.76,432.92L509.17,436.44L509.38,424.38L509.79,435.01L510.2,429.06L510.41,434.96L510.82,436.48L511.02,436.16L511.23,428.61L511.64,432.66L511.84,422.6L512.25,438.77L512.87,435.67L513.07,426.29L513.69,435.98L514.1,434.9L514.31,423.64L514.92,432.82L515.13,429.31L515.33,432.91L515.54,424.54L515.74,434.19L515.95,425.64L516.15,431.09L516.36,430.93L516.56,431.62L516.77,432.07L516.97,438.77L517.38,433.8L517.59,433.09L517.79,433.09L518,435.74L518.2,434.14L518.41,435.63L518.62,437.74L519.03,411.61L519.23,432.23L519.64,433.65L519.85,425.8L520.46,438.58L520.67,432.48L520.87,425.89L521.28,436.99L521.49,434.77L521.69,425.41L521.9,433.58L522.51,428.59L522.72,433.2L522.93,439.05L523.34,431.11L523.54,436.31L523.75,427.06L523.95,436.38L524.36,431.26L524.57,427.78L524.77,415.22L524.98,438.42L525.18,431.31L525.39,433.94L525.8,435.35L526.21,419.03L526.41,419.41L526.62,435.98L526.82,431.84L527.03,436.27L527.24,435.97L527.44,434.73L527.65,434.17L527.85,427.69L528.06,437.34L528.67,433.4L528.88,429.07L529.29,435.8L529.7,432.32L529.9,430.15L530.11,438.17L530.72,438.01L530.93,431.85L531.13,429.39L531.34,432.98L531.75,430.59L531.96,434.63L532.16,406.84L532.57,419.4L532.78,433.35L532.98,436L533.39,435.52L533.6,426.66L534.21,437.51L534.42,434.89L534.62,430.98L535.44,438.17L535.65,434.24L535.85,433.93L536.06,437.83L536.88,430.34L537.09,434.83L537.29,432.02L537.5,439.8L538.11,421.22L538.32,436.84L538.52,433.37L538.73,425.24L538.93,435.73L539.14,426.2L539.34,437.01L539.55,426.79L539.75,437.73L539.96,435.18L540.16,433.77L540.37,437.99L540.57,429.08L540.78,431.56L540.99,422.86L541.19,436.37L541.81,433.56L542.01,432.45L542.22,434.64L542.42,432.81L542.63,407.8L543.65,436.61L543.86,435.48L544.06,435.39L544.27,431.61L544.88,433.79L545.09,438.65L545.5,428.39L545.91,430.86L546.12,433.89L546.32,431.67L546.53,433.26L546.73,437.08L546.94,432.15L547.35,438.62L547.55,435.89L547.76,414.06L547.96,436.92L548.17,417.03L548.37,433.67L548.58,423.58L548.78,436.29L548.99,433.12L549.19,434.66L549.4,435.47L549.61,407.55L550.02,437.15L550.43,428.43L550.63,434.85L551.04,433.12L551.45,436.59L551.66,431.92L552.27,431.8L552.48,437.27L552.68,432.18L552.89,435.19L553.09,432.74L553.3,425.38L553.91,436.26L554.12,434.25L554.33,430L555.15,436.21L555.35,433.12L555.56,414.51L555.76,436.25L555.97,434.19L556.17,430.53L556.38,437.5L556.99,433.19L557.2,427.5L557.61,437.77L557.81,433.49L558.02,428.07L558.43,417.09L558.64,436.25L558.84,433.11L559.05,429.41L559.46,435.04L559.66,429.44L559.87,427.88L560.48,437.48L560.69,428.44L560.89,435.97L561.51,433.93L561.71,437.62L561.92,428.08L562.53,432.71L562.74,437.99L562.94,437.07L563.15,430.78L564.59,435.83L564.79,435.44L565,430.87L565.2,438.44L565.41,435.86L565.61,437.88L565.82,437.25L566.02,433.03L566.23,433.65L566.43,431.84L566.84,431.03L567.05,438.13L567.25,438.08L567.46,436.82L567.67,413.6L567.87,437.8L568.08,432.17L568.28,435.02L568.69,432.06L568.9,405.58L569.72,435.93L569.92,430.48L570.13,433.24L570.33,423.2L570.95,434.86L571.15,432.86L571.36,433.38L571.56,432.52L571.77,436.51L571.98,435.23L572.18,436.81L572.39,427.43L572.59,413.66L573,433.98L573.21,434.13L573.62,436.42L573.82,434.59L574.03,432.16L574.44,436.99L574.64,429.13L575.46,437.03L575.67,435.82L575.87,424.1L576.08,438.09L576.7,433.46L576.9,430.37L577.11,430.92L577.31,434.83L577.72,428.18L577.93,436.68L578.13,434.56L578.34,433.82L578.54,424.38L578.75,435.96L578.95,416.53L579.36,429.45L579.57,429.1L579.77,435.97L579.98,428.54L580.39,435.35L580.59,430.33L580.8,424.54L581.01,432.07L581.21,434.26L581.42,429.07L581.62,437.83L581.83,433.35L582.03,435.65L582.24,434.93L582.44,436.27L582.65,438.83L583.06,429.88L583.26,435.37L583.47,436.28L584.49,415.86L584.7,423.23L584.9,435.14L585.11,437.62L585.52,435.5L585.73,435.01L585.93,398.62L586.14,436.43L586.34,436.06L586.55,438.01L586.75,437.56L586.96,433.45L587.16,436.22L587.37,428.33L587.78,436.59L587.98,430.46L588.19,416.44L589.21,438.8L589.42,399.3L590.24,435.72L590.45,433.58L590.65,435.89L590.86,420.96L591.68,434.83L591.88,431.99L592.09,406.21L592.29,432.11L592.5,429.58L592.7,437.48L592.91,438.24L593.11,432.7L593.32,434.75L593.52,424.93L593.93,424.87L594.35,438.77L594.55,437.65L595.37,430.37L595.58,435.52L595.99,427.61L596.19,436.27L596.4,436.42L596.6,434.39L596.81,432.3L597.01,421.31L597.22,436.67L597.83,432.35L598.04,436.23L598.24,431.06L598.45,432.74L598.65,406.26L598.86,433.09L599.48,424.74L599.68,433.76L599.89,432.32L600.09,435.76L600.5,432.89L600.71,436.18L601.12,433.59L601.32,436.28L601.53,437.94L601.94,431.59L602.14,431.61L602.35,437.5L602.96,432.58L603.17,436.94L603.38,430.83L603.99,434.21L604.2,433.86L604.81,437.14L605.02,432.42L605.22,433.91L605.43,430.76L605.63,432.76L605.84,428.94L606.04,429.11L606.25,431.11L606.45,427.78L606.66,436.79L606.86,436.97L607.27,434.15L607.48,436.42L607.89,429.33L608.1,436.06L608.3,435.78L608.51,430.78L608.92,424.69L609.33,438.27L609.53,425.21L609.74,436.33L610.15,433.3L610.35,427.15L611.17,438.64L611.38,425.67L611.99,435.88L612.2,428.72L612.41,433.61L612.61,430.21L612.82,438.42L613.02,437.38L613.64,430.43L613.84,435.04L614.05,436.3L614.66,431.96L614.87,413.87L615.48,436.97L615.69,434.4L615.89,423.52L616.1,436.76L616.72,430.39L616.92,431.25L617.13,434.34L617.54,434.01L617.74,431.69L617.95,435.13L618.15,431.01L618.36,434.11L618.56,429.87L619.18,438.48L619.38,433.72L619.59,432.75L620,436.7L620.2,426.33L620.41,412.22L620.61,437.21L620.82,438.11L621.23,413.09L621.44,432.57L621.64,437.8L622.05,429.07L622.26,429.08L622.87,438L623.08,427.97L623.69,434.14L623.9,431.05L624.1,428.05L624.72,438.94L624.92,437.59L625.13,437.03L625.33,425.67L625.75,425.75L625.95,434.66L626.36,428.32L626.57,435.23L626.77,434.96L626.98,432.68L627.18,438.33L627.39,403.94L628.21,437.6L628.41,415.24L628.82,437.81L629.23,433.11L629.44,436.15L630.26,428.49L630.47,433.04L630.67,434.56L630.88,426.25L631.08,427.32L631.29,435.41L631.49,436.93L631.7,431.03L632.11,433.5L632.31,430.24L632.52,429.9L632.72,433.14L633.13,430.15L633.34,435.66L633.54,435.33L633.75,429.04L633.95,430.14L634.16,435.76L634.36,437.11L634.57,431.25L634.78,430.14L634.98,435.18L635.19,435.2L635.39,432.26L635.6,434.37L636.01,432.15L636.21,432.64L636.62,431.88L636.83,437.2L637.03,421.71L637.44,434.47L637.85,433.34L638.06,406.73L639.09,439.85L639.29,435.37L639.7,436.22L639.91,429.4L640.11,431.65L640.32,434.7L640.73,432.63L640.93,436.17L641.34,417.63L641.55,428.52L641.75,435.34L641.96,423.56L642.16,435.89L642.37,431.31L642.57,432.75L642.98,429.45L643.19,435.78L643.6,426.12L643.81,431.24L644.01,432.48L644.22,436.94L644.42,422.94L645.24,437.75L645.45,435.96L645.65,407.25L646.27,415.74L646.47,430.89L647.09,437.35L647.29,432.18L648.12,436.41L648.32,432.27L648.53,437.36L648.94,431.06L649.14,434.96L649.35,436.06L649.96,432.24L650.17,435.36L650.37,437.13L650.58,427.53L650.99,437.5L651.19,436.4L651.4,428.24L651.6,436.72L652.22,433.08L652.43,433.96L652.63,436.26L653.04,432.37L653.25,436.2L653.45,430.91L654.27,437.09L654.48,435.92L654.68,431.91L655.09,436.95L655.3,437.17L655.5,416.34L656.12,419.81L656.32,431.57L657.35,439.29L657.56,414.42L657.97,435.42L658.38,431.25L658.58,434L658.79,433.41L658.99,435.82L659.2,437.92L659.61,437.16L659.81,419.06L660.02,434.11L660.63,428.59L660.84,429.02L661.04,425.87L661.25,434.8" style="vector-effect: non-scaling-stroke; fill: none; stroke: rgb(244, 162, 97); stroke-opacity: 1; stroke-width: 1.5px; opacity: 1;"/></g><g class="points"/><g class="text"/></g><g class="trace scatter trace1bbed4" style="stroke-miterlimit: 2; opacity: 1;"><g class="fills"/><g class="errorbars"/><g class="lines"/><g class="points"><path class="point" transform="translate(661.25,434.8)" d="M3,0A3,3 0 1,1 0,-3A3,3 0 0,1 3,0Z" style="opacity: 1; stroke-width: 0px; fill: rgb(244, 162, 97); fill-opacity: 1;"/></g><g class="text"/></g></g></g><g class="overplot"/><path class="xlines-above crisp" d="M0,0" style="fill: none;"/><path class="ylines-above crisp" d="M0,0" style="fill: none;"/><g class="overlines-above"/><g class="xaxislayer-above"><g class="xtick"><text text-anchor="middle" x="0" y="536" transform="translate(60,0)" style="font-family: 'Open Sans', verdana, arial, sans-serif; font-size: 12px; fill: rgb(68, 68, 68); fill-opacity: 1; white-space: pre;">0</text></g><g class="xtick"><text text-anchor="middle" x="0" y="536" transform="translate(162.61,0)" style="font-family: 'Open Sans', verdana, arial, sans-serif; font-size: 12px; fill: rgb(68, 68, 68); fill-opacity: 1; white-space: pre;">500</text></g><g class="xtick"><text text-anchor="middle" x="0" y="536" transform="translate(265.23,0)" style="font-family: 'Open Sans', verdana, arial, sans-serif; font-size: 12px; fill: rgb(68, 68, 68); fill-opacity: 1; white-space: pre;">1000</text></g><g class="xtick"><text text-anchor="middle" x="0" y="536" transform="translate(367.84,0)" style="font-family: 'Open Sans', verdana, arial, sans-serif; font-size: 12px; fill: rgb(68, 68, 68); fill-opacity: 1; white-space: pre;">1500</text></g><g class="xtick"><text text-anchor="middle" x="0" y="536" transform="translate(470.46,0)" style="font-family: 'Open Sans', verdana, arial, sans-serif; font-size: 12px; fill: rgb(68, 68, 68); fill-opacity: 1; white-space: pre;">2000</text></g><g class="xtick"><text text-anchor="middle" x="0" y="536" transform="translate(573.07,0)" style="font-family: 'Open Sans', verdana, arial, sans-serif; font-size: 12px; fill: rgb(68, 68, 68); fill-opacity: 1; white-space: pre;">2500</text></g><g class="xtick"><text text-anchor="middle" x="0" y="536" transform="translate(675.69,0)" style="font-family: 'Open Sans', verdana, arial, sans-serif; font-size: 12px; fill: rgb(68, 68, 68); fill-opacity: 1; white-space: pre;">3000</text></g></g><g class="yaxislayer-above"><g class="ytick"><text text-anchor="end" x="49" y="4.199999999999999" transform="translate(0,490.9)" style="font-family: 'Open Sans', verdana, arial, sans-serif; font-size: 12px; fill: rgb(68, 68, 68); fill-opacity: 1; white-space: pre;">0.25</text></g><g class="ytick"><text text-anchor="end" x="49" y="4.199999999999999" transform="translate(0,423.29)" style="font-family: 'Open Sans', verdana, arial, sans-serif; font-size: 12px; fill: rgb(68, 68, 68); fill-opacity: 1; white-space: pre;">0.35</text></g><g class="ytick"><text text-anchor="end" x="49" y="4.199999999999999" transform="translate(0,355.67)" style="font-family: 'Open Sans', verdana, arial, sans-serif; font-size: 12px; fill: rgb(68, 68, 68); fill-opacity: 1; white-space: pre;">0.45</text></g><g class="ytick"><text text-anchor="end" x="49" y="4.199999999999999" transform="translate(0,288.06)" style="font-family: 'Open Sans', verdana, arial, sans-serif; font-size: 12px; fill: rgb(68, 68, 68); fill-opacity: 1; white-space: pre;">0.55</text></g><g class="ytick"><text text-anchor="end" x="49" y="4.199999999999999" transform="translate(0,220.44)" style="font-family: 'Open Sans', verdana, arial, sans-serif; font-size: 12px; fill: rgb(68, 68, 68); fill-opacity: 1; white-space: pre;">0.65</text></g><g class="ytick"><text text-anchor="end" x="49" y="4.199999999999999" transform="translate(0,152.82999999999998)" style="font-family: 'Open Sans', verdana, arial, sans-serif; font-size: 12px; fill: rgb(68, 68, 68); fill-opacity: 1; white-space: pre;">0.75</text></g><g class="ytick"><text text-anchor="end" x="49" y="4.199999999999999" transform="translate(0,85.22)" style="font-family: 'Open Sans', verdana, arial, sans-serif; font-size: 12px; fill: rgb(68, 68, 68); fill-opacity: 1; white-space: pre;">0.85</text></g></g><g class="overaxes-above"/></g></g><g class="polarlayer"/><g class="ternarylayer"/><g class="geolayer"/><g class="pielayer"/><g class="glimages"/><defs id="topdefs-62ed80"><g class="clips"/><clipPath id="legend62ed80"><rect width="170" height="29" x="0" y="0"/></clipPath></defs><g class="layer-above"><g class="imagelayer"/><g class="shapelayer"/></g><g class="infolayer"><g class="legend" pointer-events="all" transform="translate(130, 559.3000000000001)"><rect class="bg" shape-rendering="crispEdges" style="stroke: rgb(68, 68, 68); stroke-opacity: 1; fill: rgb(255, 255, 255); fill-opacity: 1; stroke-width: 0px;" width="170" height="29" x="0" y="0"/><g class="scrollbox" transform="translate(0, 0)" clip-path="url(#legend62ed80)"><g class="groups"><g class="traces" transform="translate(0, 14.5)" style="opacity: 1;"><g class="layers" style="opacity: 1;"><g class="legendfill"/><g class="legendlines"><path class="js-line" d="M5,0h30" style="fill: none; stroke: rgb(244, 162, 97); stroke-opacity: 1; stroke-width: 1.5px;"/></g><g class="legendsymbols"><g class="legendpoints"/></g></g><text class="legendtext user-select-none" text-anchor="start" x="40" y="4.680000000000001" style="font-family: 'Open Sans', verdana, arial, sans-serif; font-size: 12px; fill: rgb(68, 68, 68); fill-opacity: 1; white-space: pre;">Loss</text><rect class="legendtoggle" pointer-events="all" x="0" y="-9.5" width="170" height="19" style="cursor: pointer; fill: rgb(0, 0, 0); fill-opacity: 0;"/></g></g></g><rect class="scrollbar" rx="20" ry="3" width="0" height="0" style="fill: rgb(128, 139, 164); fill-opacity: 1;" x="0" y="0"/></g><g class="g-gtitle"><text class="gtitle" x="400" y="25" text-anchor="middle" style="font-family: 'Open Sans', verdana, arial, sans-serif; font-size: 17px; fill: rgb(68, 68, 68); opacity: 1; font-weight: normal; white-space: pre;">Training loss at each mini-batch</text></g><g class="g-xtitle"/><g class="g-ytitle"/></g></svg>