<svg class="main-svg" xmlns="http://www.w3.org/2000/svg" xmlns:xlink="http://www.w3.org/1999/xlink" width="800" height="600" style="" viewBox="0 0 800 600"><rect x="0" y="0" width="800" height="600" style="fill: rgb(255, 255, 255); fill-opacity: 1;"/><defs id="defs-fdb050"><g class="clips"><clipPath id="clipfdb050xyplot" class="plotclip"><rect width="700" height="463"/></clipPath><clipPath class="axesclip" id="clipfdb050x"><rect x="60" y="0" width="700" height="600"/></clipPath><clipPath class="axesclip" id="clipfdb050y"><rect x="0" y="50" width="800" height="463"/></clipPath><clipPath class="axesclip" id="clipfdb050xy"><rect x="60" y="50" width="700" height="463"/></clipPath></g><g class="gradients"/></defs><g class="bglayer"/><g class="layer-below"><g class="imagelayer"/><g class="shapelayer"/></g><g class="cartesianlayer"><g class="subplot xy"><g class="layer-subplot"><g class="shapelayer"/><g class="imagelayer"/></g><g class="gridlayer"><g class="x"><path class="xgrid crisp" d="M0,50v463" transform="translate(178.5,0)" style="stroke: rgb(238, 238, 238); stroke-opacity: 1; stroke-width: 1px;"/><path class="xgrid crisp" d="M0,50v463" transform="translate(297.01,0)" style="stroke: rgb(238, 238, 238); stroke-opacity: 1; stroke-width: 1px;"/><path class="xgrid crisp" d="M0,50v463" transform="translate(415.51,0)" style="stroke: rgb(238, 238, 238); stroke-opacity: 1; stroke-width: 1px;"/><path class="xgrid crisp" d="M0,50v463" transform="translate(534.01,0)" style="stroke: rgb(238, 238, 238); stroke-opacity: 1; stroke-width: 1px;"/><path class="xgrid crisp" d="M0,50v463" transform="translate(652.52,0)" style="stroke: rgb(238, 238, 238); stroke-opacity: 1; stroke-width: 1px;"/></g><g class="y"><path class="ygrid crisp" d="M60,0h700" transform="translate(0,420.32)" style="stroke: rgb(238, 238, 238); stroke-opacity: 1; stroke-width: 1px;"/><path class="ygrid crisp" d="M60,0h700" transform="translate(0,337.11)" style="stroke: rgb(238, 238, 238); stroke-opacity: 1; stroke-width: 1px;"/><path class="ygrid crisp" d="M60,0h700" transform="translate(0,253.91)" style="stroke: rgb(238, 238, 238); stroke-opacity: 1; stroke-width: 1px;"/><path class="ygrid crisp" d="M60,0h700" transform="translate(0,170.7)" style="stroke: rgb(238, 238, 238); stroke-opacity: 1; stroke-width: 1px;"/><path class="ygrid crisp" d="M60,0h700" transform="translate(0,87.49000000000001)" style="stroke: rgb(238, 238, 238); stroke-opacity: 1; stroke-width: 1px;"/></g></g><g class="zerolinelayer"><path class="xzl zl crisp" d="M0,50v463" transform="translate(60,0)" style="stroke: rgb(68, 68, 68); stroke-opacity: 1; stroke-width: 1px;"/><path class="yzl zl crisp" d="M60,0h700" transform="translate(0,503.53)" style="stroke: rgb(68, 68, 68); stroke-opacity: 1; stroke-width: 1px;"/></g><path class="xlines-below"/><path class="ylines-below"/><g class="overlines-below"/><g class="xaxislayer-below"/><g class="yaxislayer-below"/><g class="overaxes-below"/><g class="plot" transform="translate(60, 50)" clip-path="url(#clipfdb050xyplot)"><g class="scatterlayer mlayer"><g class="trace scatter traceae726a" style="stroke-miterlimit: 2; opacity: 1;"><g class="fills"/><g class="errorbars"/><g class="lines"><path class="js-line" d="M0,96.9L2.37,151.45L3.56,101.34L4.74,162.43L5.93,23.15L7.11,190.54L8.3,167.37L9.48,141.89L10.67,97.78L13.04,165.56L14.22,82.9L15.41,225.41L16.59,203.92L17.78,251.9L18.96,121.98L21.33,221.71L22.52,91.07L27.26,246.83L28.44,91.61L29.63,220.59L30.81,185.25L32,274.75L33.18,248.2L34.37,232.14L35.55,293.62L36.74,253.95L37.92,165.4L40.29,307.58L41.48,188.26L42.66,216.29L43.85,270.02L45.03,128.53L46.22,215.12L47.4,302L48.59,321.17L49.77,252.95L50.96,290.79L52.14,296.77L53.33,273.83L54.51,259.3L55.7,285.9L56.88,251.33L58.07,192.4L59.25,297.47L60.44,278.2L62.81,363.25L63.99,385.38L65.18,266.05L66.36,320.19L67.55,318.68L68.73,277.26L69.92,334.63L71.1,341.61L72.29,326.7L73.47,354.87L74.66,298.04L75.84,330.9L77.03,283.86L78.21,310.8L79.4,269.06L80.58,285.82L81.77,154.74L82.95,275.4L84.14,287.99L85.32,342.44L86.51,253.9L87.69,259.19L88.88,247.67L90.06,265.16L92.43,339.72L93.62,284.69L95.99,374.29L97.17,373.42L98.36,316.7L99.54,311.16L100.73,280.07L101.91,332.69L103.1,279.96L104.28,318.24L105.47,337.91L106.65,374.1L107.84,350.79L109.02,345.9L110.21,333.26L111.39,329.85L112.58,391.42L113.76,349.58L114.95,377.71L116.13,335.35L117.32,278.8L118.5,350.76L119.69,384.47L120.87,310.78L122.06,403.68L123.24,335.43L124.43,364.41L125.61,296.81L126.8,407.2L127.98,361.37L130.35,376.83L131.54,374.27L132.72,358.64L133.91,328.88L135.09,351.59L136.28,347.25L137.46,339.4L138.65,272.37L139.83,412.63L141.02,406.21L142.2,334.29L143.39,367.55L144.57,331.57L145.76,367.87L146.94,327.54L148.13,415.1L149.31,359.36L150.5,382.8L151.68,318.71L152.87,386.8L155.24,332.59L156.42,340.55L157.61,315.39L158.79,404.94L159.98,404.62L161.16,383.01L162.35,328.83L163.53,342.54L164.72,391.46L165.91,370.87L167.09,405.34L168.28,387.9L169.46,425.34L170.65,344.53L171.83,386.73L173.02,379.31L175.39,363.33L176.57,335.77L177.76,407.12L178.94,329.7L180.13,430.24L181.31,352.97L182.5,396.44L183.68,391.01L184.87,419.39L186.05,363.75L187.24,396.98L188.42,402.31L189.61,330.11L190.79,396.32L191.98,413.54L193.16,392.94L195.53,333.61L196.72,364.16L197.9,391.16L199.09,386.42L200.27,387.55L201.46,430.4L202.64,392.61L203.83,396.61L205.01,377.18L206.2,325.7L208.57,369.96L209.75,411.77L210.94,368.03L212.12,384.56L213.31,369.67L214.49,412.68L215.68,389.35L216.86,401.74L218.05,335.42L219.23,425.92L220.42,404.42L221.6,357.97L222.79,426.14L223.97,336.36L225.16,380.55L226.34,357.1L227.53,429L228.71,400.45L229.9,319.04L231.08,401.72L232.27,375.95L233.45,395.17L234.64,368.54L235.82,401.07L237.01,341.56L238.19,383.2L239.38,380.32L240.56,421.18L241.75,367.44L242.93,369.33L244.12,413.35L245.3,356.92L246.49,415.9L247.67,337.74L248.86,401.91L250.04,411.17L251.23,374.05L252.41,372.09L253.6,382.84L254.78,374.52L255.97,382.85L257.15,407.43L258.34,394.54L259.52,335.74L260.71,393.2L261.89,384.64L263.08,414.68L264.26,406.62L265.45,384.28L266.63,390.26L267.82,406.45L269,335.38L270.19,400.77L271.37,409.54L272.56,348.7L273.74,417.69L274.93,393.44L276.11,277.72L277.3,426.77L278.48,394.95L279.67,303.16L280.85,350.89L282.04,386.82L283.22,382.88L284.41,415.75L285.59,392.32L286.78,381.87L287.96,384.44L289.15,367.18L290.33,398.57L291.52,416.5L292.7,378.52L293.89,315.6L295.07,419.45L296.26,387.69L297.44,381.33L298.63,418.59L299.81,386.65L301,402.37L302.18,370.15L303.37,366.32L304.55,386.8L306.92,393.86L308.11,355.17L309.29,396.64L310.48,410.17L311.66,344.32L312.85,406.81L314.03,380.09L315.22,426.01L316.4,392.77L317.59,395.98L318.77,374.34L319.96,398.55L321.14,320.47L322.33,410.85L323.51,374.97L324.7,396.27L325.88,415.27L327.07,378.19L328.25,412.9L329.44,352.06L330.62,412.12L331.81,401.29L333,335.15L334.18,349.57L335.37,409.9L336.55,340.02L337.74,438.64L338.92,392.57L340.11,387.2L341.29,397.67L342.48,389.23L343.66,333.48L344.85,411.08L346.03,307.82L348.4,410.77L349.59,422.7L351.96,400.63L353.14,364.86L354.33,398.74L355.51,347.2L356.7,380.48L357.88,375.97L359.07,403.66L360.25,386.38L361.44,400.29L362.62,377.7L363.81,278.59L364.99,409.58L366.18,387.52L367.36,433.47L368.55,436.02L369.73,405.79L370.92,340.07L372.1,358.87L373.29,400.79L374.47,395.45L375.66,394.84L376.84,388.69L378.03,357.11L379.21,434.35L380.4,389.62L381.58,379.49L382.77,369.55L383.95,394.27L385.14,369.45L386.32,415.42L387.51,420.81L388.69,394.33L389.88,361.56L391.06,404.74L392.25,416.43L393.43,310.15L394.62,315.65L395.8,400.37L396.99,413.66L398.17,390.77L399.36,395.54L400.54,345.79L401.73,391.4L402.91,363.1L405.28,406.91L406.47,398.35L407.65,350.22L408.84,376.77L410.02,406.64L411.21,372.68L412.39,430.61L413.58,411.78L414.76,359.24L415.95,411.05L417.13,404.34L418.32,409.16L419.5,402.72L420.69,365.61L421.87,384.29L423.06,418.06L424.24,310.19L425.43,385.21L426.61,349.62L427.8,345.07L428.98,406.21L430.17,420.92L431.35,376.97L432.54,369.85L433.72,426.97L434.91,403.33L436.09,410.67L437.28,391.08L438.46,378.26L439.65,407.09L440.83,350.45L442.02,362.45L444.39,378.26L445.57,378.04L446.76,398.29L447.94,432.68L449.13,427.17L450.31,358.18L451.5,413.48L452.68,356.37L453.87,390.07L455.05,394.64L456.24,411.13L457.42,370.91L458.61,356.17L459.79,391.31L460.98,291.29L462.16,389.34L463.35,424.94L464.53,385.56L465.72,371.1L466.9,396.83L468.09,381.65L469.27,414.98L470.46,372.3L471.64,419.19L472.83,344.68L474.01,346.02L475.2,394.68L476.38,361.15L477.57,373.33L478.75,407.78L481.12,351.79L482.31,368.54L484.68,421.49L485.86,407.38L487.05,409.05L488.23,334.71L489.42,380.95L490.6,369.87L492.97,437.15L494.16,380.52L496.53,412.49L497.72,402.09L500.09,380.18L501.27,342.87L502.46,391.67L503.64,338.25L504.83,413.05L506.01,350.09L507.2,369.72L508.38,352.23L510.75,391.55L511.94,381.97L513.12,388.6L514.31,367.65L515.49,426.32L516.68,430.22L517.86,362.57L519.05,414.66L520.23,353.61L521.42,348.22L522.6,413.24L523.79,405.15L524.97,380.03L526.16,373.75L527.34,352.42L528.53,370.27L529.71,406.16L530.9,418.02L532.08,382.64L533.27,385.17L534.45,335.36L535.64,418.39L536.82,378.37L538.01,403.28L539.19,369.9L540.38,393.2L541.56,378.47L542.75,416.46L545.12,311.31L546.3,354.12L547.49,396.22L548.67,406.3L549.86,413.31L551.04,427.51L552.23,384.43L553.41,408.91L555.78,387.31L556.97,400.05L558.15,362.49L559.34,383.43L560.52,361.31L561.71,360.78L562.89,359.4L564.08,405.96L565.26,399.01L566.45,439.85L567.63,350.74L568.82,400.22L570,345.86L571.19,349.85L572.37,425.64L573.56,402.83L574.74,360.6L575.93,389.7L577.11,378.85L578.3,414.59L579.48,359.16L580.67,351.13L581.85,425.43L583.04,397.91L584.22,408.23L585.41,390.88L586.59,360.87L587.78,390.79L588.96,368.06L590.15,368.98L591.33,387.3L592.52,435.59L593.7,425.56L594.89,408.66L596.07,324.68L597.26,423.06L598.44,330.33L599.63,392.57L600.81,404.74L602,381.48L603.18,398.79L604.37,345.33L605.55,422.78L606.74,406.34L607.92,384.96L609.11,410.16L611.48,359.01L612.66,352.42L613.85,417.66L615.03,330.47L617.4,404.52L618.59,415.6L619.77,369.52L620.96,389.96L622.14,434.91L623.33,364.29L624.51,394.26L625.7,323.66L626.88,411.12L628.07,389.74L629.25,387.95L630.44,354.02L631.62,382.9L632.81,374.49L633.99,371.76L635.18,381.98L636.36,392.11L637.55,418.65L638.73,406.05L639.92,423.51L641.1,435.75L642.29,390.25L643.47,331.43L644.66,354.99L645.84,334.36L647.03,381.27L649.4,432.73L650.58,389.45L651.77,371.31L652.95,372.12L654.14,424.55L655.32,406.31L656.51,340.96L657.69,372.12L658.88,360.06L660.06,374.89L661.25,370.97" style="vector-effect: non-scaling-stroke; fill: none; stroke: rgb(244, 162, 97); stroke-opacity: 1; stroke-width: 1.5px; opacity: 1;"/></g><g class="points"/><g class="text"/></g><g class="trace scatter trace4fa043" style="stroke-miterlimit: 2; opacity: 1;"><g class="fills"/><g class="errorbars"/><g class="lines"/><g class="points"><path class="point" transform="translate(661.25,370.97)" d="M3,0A3,3 0 1,1 0,-3A3,3 0 0,1 3,0Z" style="opacity: 1; stroke-width: 0px; fill: rgb(244, 162, 97); fill-opacity: 1;"/></g><g class="text"/></g></g></g><g class="overplot"/><path class="xlines-above crisp" d="M0,0" style="fill: none;"/><path class="ylines-above crisp" d="M0,0" style="fill: none;"/><g class="overlines-above"/><g class="xaxislayer-above"><g class="xtick"><text text-anchor="middle" x="0" y="536" transform="translate(60,0)" style="font-family: 'Open Sans', verdana, arial, sans-serif; font-size: 12px; fill: rgb(68, 68, 68); fill-opacity: 1; white-space: pre;">0</text></g><g class="xtick"><text text-anchor="middle" x="0" y="536" transform="translate(178.5,0)" style="font-family: 'Open Sans', verdana, arial, sans-serif; font-size: 12px; fill: rgb(68, 68, 68); fill-opacity: 1; white-space: pre;">100</text></g><g class="xtick"><text text-anchor="middle" x="0" y="536" transform="translate(297.01,0)" style="font-family: 'Open Sans', verdana, arial, sans-serif; font-size: 12px; fill: rgb(68, 68, 68); fill-opacity: 1; white-space: pre;">200</text></g><g class="xtick"><text text-anchor="middle" x="0" y="536" transform="translate(415.51,0)" style="font-family: 'Open Sans', verdana, arial, sans-serif; font-size: 12px; fill: rgb(68, 68, 68); fill-opacity: 1; white-space: pre;">300</text></g><g class="xtick"><text text-anchor="middle" x="0" y="536" transform="translate(534.01,0)" style="font-family: 'Open Sans', verdana, arial, sans-serif; font-size: 12px; fill: rgb(68, 68, 68); fill-opacity: 1; white-space: pre;">400</text></g><g class="xtick"><text text-anchor="middle" x="0" y="536" transform="translate(652.52,0)" style="font-family: 'Open Sans', verdana, arial, sans-serif; font-size: 12px; fill: rgb(68, 68, 68); fill-opacity: 1; white-space: pre;">500</text></g></g><g class="yaxislayer-above"><g class="ytick"><text text-anchor="end" x="49" y="4.199999999999999" transform="translate(0,503.53)" style="font-family: 'Open Sans', verdana, arial, sans-serif; font-size: 12px; fill: rgb(68, 68, 68); fill-opacity: 1; white-space: pre;">0.4</text></g><g class="ytick"><text text-anchor="end" x="49" y="4.199999999999999" transform="translate(0,420.32)" style="font-family: 'Open Sans', verdana, arial, sans-serif; font-size: 12px; fill: rgb(68, 68, 68); fill-opacity: 1; white-space: pre;">0.6</text></g><g class="ytick"><text text-anchor="end" x="49" y="4.199999999999999" transform="translate(0,337.11)" style="font-family: 'Open Sans', verdana, arial, sans-serif; font-size: 12px; fill: rgb(68, 68, 68); fill-opacity: 1; white-space: pre;">0.8</text></g><g class="ytick"><text text-anchor="end" x="49" y="4.199999999999999" transform="translate(0,253.91)" style="font-family: 'Open Sans', verdana, arial, sans-serif; font-size: 12px; fill: rgb(68, 68, 68); fill-opacity: 1; white-space: pre;">1</text></g><g class="ytick"><text text-anchor="end" x="49" y="4.199999999999999" transform="translate(0,170.7)" style="font-family: 'Open Sans', verdana, arial, sans-serif; font-size: 12px; fill: rgb(68, 68, 68); fill-opacity: 1; white-space: pre;">1.2</text></g><g class="ytick"><text text-anchor="end" x="49" y="4.199999999999999" transform="translate(0,87.49000000000001)" style="font-family: 'Open Sans', verdana, arial, sans-serif; font-size: 12px; fill: rgb(68, 68, 68); fill-opacity: 1; white-space: pre;">1.4</text></g></g><g class="overaxes-above"/></g></g><g class="polarlayer"/><g class="ternarylayer"/><g class="geolayer"/><g class="pielayer"/><g class="glimages"/><defs id="topdefs-fdb050"><g class="clips"/><clipPath id="legendfdb050"><rect width="165" height="29" x="0" y="0"/></clipPath></defs><g class="layer-above"><g class="imagelayer"/><g class="shapelayer"/></g><g class="infolayer"><g class="legend" pointer-events="all" transform="translate(130, 559.3000000000001)"><rect class="bg" shape-rendering="crispEdges" style="stroke: rgb(68, 68, 68); stroke-opacity: 1; fill: rgb(255, 255, 255); fill-opacity: 1; stroke-width: 0px;" width="165" height="29" x="0" y="0"/><g class="scrollbox" transform="translate(0, 0)" clip-path="url(#legendfdb050)"><g class="groups"><g class="traces" transform="translate(0, 14.5)" style="opacity: 1;"><g class="layers" style="opacity: 1;"><g class="legendfill"/><g class="legendlines"><path class="js-line" d="M5,0h30" style="fill: none; stroke: rgb(244, 162, 97); stroke-opacity: 1; stroke-width: 1.5px;"/></g><g class="legendsymbols"><g class="legendpoints"/></g></g><text class="legendtext user-select-none" text-anchor="start" x="40" y="4.680000000000001" style="font-family: 'Open Sans', verdana, arial, sans-serif; font-size: 12px; fill: rgb(68, 68, 68); fill-opacity: 1; white-space: pre;">Loss</text><rect class="legendtoggle" pointer-events="all" x="0" y="-9.5" width="165" height="19" style="cursor: pointer; fill: rgb(0, 0, 0); fill-opacity: 0;"/></g></g></g><rect class="scrollbar" rx="20" ry="3" width="0" height="0" style="fill: rgb(128, 139, 164); fill-opacity: 1;" x="0" y="0"/></g><g class="g-gtitle"><text class="gtitle" x="400" y="25" text-anchor="middle" style="font-family: 'Open Sans', verdana, arial, sans-serif; font-size: 17px; fill: rgb(68, 68, 68); opacity: 1; font-weight: normal; white-space: pre;">Validation loss at each mini-batch</text></g><g class="g-xtitle"/><g class="g-ytitle"/></g></svg>